<?xml version="1.0" standalone="no"?>
<!DOCTYPE svg PUBLIC "-//W3C//DTD SVG 1.1//EN" "http://www.w3.org/Graphics/SVG/1.1/DTD/svg11.dtd">
<svg t="1679468177819" class="icon" viewBox="0 0 15024 15024" version="1.1" xmlns="http://www.w3.org/2000/svg" p-id="2610" xmlns:xlink="http://www.w3.org/1999/xlink" width="5000" height="5000">
<g width="1610" height="440" transform="translate(80.032481332215,116.68679874279593) scale(0.5946035575013605)"><rect id="timeAxisEntBl_0" class="timeAxisEntBl" x="19" y="-9" rx="0" ry="0" height="42" width="3" fill="rgb(125, 66, 206)" opacity="0.4" stroke="white" stroke-width="0px"></rect><text y="27" x="43" id="timeDurText_0_0" class="timeDuyrText" fill="rgb(125, 66, 206)" font-size="15" style="text-anchor: middle;"> 00:00</text><rect id="timeAxisEntB_0" class="timeAxisEntB" x="18" y="30" rx="6" ry="6" height="100" width="33.65079365079365" fill="rgb(125, 66, 206)" opacity="0.3" stroke="white" stroke-width="1.5px"></rect><rect id="timeAxisEnt_0" class="timeAxisEnt" x="20" y="50" rx="3" ry="3" height="80" width="0.2063492063492065" fill="rgb(125, 66, 206)" opacity="0.4" stroke="rgb(95, 39, 179)" stroke-width="0"></rect><text y="150" x="20.103174603174605" id="timeText_0_0" class="timeText" fill="grey" font-size="16" style="text-anchor: middle;" opacity="0"> Outline</text><rect id="timeAxisEnt_1" class="timeAxisEnt" x="24.206349206349206" y="70" rx="3" ry="3" height="60" width="25.444444444444443" fill="rgb(125, 66, 206)" opacity="0.4" stroke="rgb(95, 39, 179)" stroke-width="0"></rect><text y="150" x="36.92857142857143" id="timeText_1_0" class="timeText" fill="grey" font-size="16" style="text-anchor: middle;" opacity="0"> Chaining Implementation and Analysis</text><rect id="timeAxisEntBl_2" class="timeAxisEntBl" x="52.650793650793645" y="-9" rx="0" ry="0" height="42" width="3" fill="rgb(248, 134, 124)" opacity="0.4" stroke="white" stroke-width="0px"></rect><text y="27" x="76.65079365079364" id="timeDurText_2_0" class="timeDuyrText" fill="rgb(248, 134, 124)" font-size="15" style="text-anchor: middle;"> 00:08</text><rect id="timeAxisEntB_2" class="timeAxisEntB" x="51.650793650793645" y="30" rx="6" ry="6" height="100" width="1005.3174603174604" fill="rgb(248, 134, 124)" opacity="0.3" stroke="white" stroke-width="1.5px"></rect><rect id="timeAxisEnt_2" class="timeAxisEnt" x="53.650793650793645" y="50" rx="3" ry="3" height="80" width="17.03174603174603" fill="rgb(248, 134, 124)" opacity="0.4" stroke="rgb(221, 83, 72)" stroke-width="0"></rect><text y="150" x="62.16666666666666" id="timeText_2_0" class="timeText" fill="grey" font-size="16" style="text-anchor: middle;" opacity="0"> Implementation</text><rect id="timeAxisEnt_3" class="timeAxisEnt" x="74.68253968253967" y="70" rx="3" ry="3" height="60" width="227.34920634920633" fill="rgb(248, 134, 124)" opacity="0.4" stroke="rgb(221, 83, 72)" stroke-width="0"></rect><text y="150" x="188.35714285714283" id="timeText_3_0" class="timeText" fill="grey" font-size="16" style="text-anchor: middle;" opacity="0"> HasKey</text><rect id="timeAxisEnt_4" class="timeAxisEnt" x="306.031746031746" y="70" rx="3" ry="3" height="60" width="223.14285714285714" fill="rgb(248, 134, 124)" opacity="0.4" stroke="rgb(221, 83, 72)" stroke-width="0"></rect><text y="150" x="417.6031746031746" id="timeText_4_0" class="timeText" fill="grey" font-size="16" style="text-anchor: middle;" opacity="0"> Example</text><rect id="timeAxisEnt_5" class="timeAxisEnt" x="533.1746031746031" y="70" rx="3" ry="3" height="60" width="29.650793650793652" fill="rgb(248, 134, 124)" opacity="0.4" stroke="rgb(221, 83, 72)" stroke-width="0"></rect><text y="150" x="548" id="timeText_5_0" class="timeText" fill="grey" font-size="16" style="text-anchor: middle;" opacity="0"> Get</text><rect id="timeAxisEnt_6" class="timeAxisEnt" x="566.8253968253968" y="70" rx="3" ry="3" height="60" width="164.25396825396825" fill="rgb(248, 134, 124)" opacity="0.4" stroke="rgb(221, 83, 72)" stroke-width="0"></rect><text y="150" x="648.9523809523808" id="timeText_6_0" class="timeText" fill="grey" font-size="16" style="text-anchor: middle;" opacity="0"> Example</text><rect id="timeAxisEnt_7" class="timeAxisEnt" x="735.0793650793651" y="70" rx="3" ry="3" height="60" width="42.269841269841265" fill="rgb(248, 134, 124)" opacity="0.4" stroke="rgb(221, 83, 72)" stroke-width="0"></rect><text y="150" x="756.2142857142857" id="timeText_7_0" class="timeText" fill="grey" font-size="16" style="text-anchor: middle;" opacity="0"> Set</text><rect id="timeAxisEnt_8" class="timeAxisEnt" x="781.3492063492063" y="70" rx="3" ry="3" height="60" width="273.6190476190476" fill="rgb(248, 134, 124)" opacity="0.4" stroke="rgb(221, 83, 72)" stroke-width="0"></rect><text y="150" x="918.1587301587301" id="timeText_8_0" class="timeText" fill="grey" font-size="16" style="text-anchor: middle;" opacity="0"> Example</text><rect id="timeAxisEntBl_9" class="timeAxisEntBl" x="1057.968253968254" y="-9" rx="0" ry="0" height="42" width="3" fill="rgb(50, 198, 191)" opacity="0.4" stroke="white" stroke-width="0px"></rect><text y="27" x="1081.968253968254" id="timeDurText_9_0" class="timeDuyrText" fill="rgb(50, 198, 191)" font-size="15" style="text-anchor: middle;"> 04:07</text><rect id="timeAxisEntB_9" class="timeAxisEntB" x="1056.968253968254" y="30" rx="6" ry="6" height="100" width="551.031746031746" fill="rgb(50, 198, 191)" opacity="0.3" stroke="white" stroke-width="1.5px"></rect><rect id="timeAxisEnt_9" class="timeAxisEnt" x="1058.968253968254" y="50" rx="3" ry="3" height="80" width="17.03174603174603" fill="rgb(50, 198, 191)" opacity="0.4" stroke="rgb(0, 158, 148)" stroke-width="0"></rect><text y="150" x="1067.484126984127" id="timeText_9_0" class="timeText" fill="grey" font-size="16" style="text-anchor: middle;" opacity="0"> Asymptotics</text><rect id="timeAxisEnt_10" class="timeAxisEnt" x="1080" y="70" rx="3" ry="3" height="60" width="54.888888888888886" fill="rgb(50, 198, 191)" opacity="0.4" stroke="rgb(0, 158, 148)" stroke-width="0"></rect><text y="150" x="1107.4444444444443" id="timeText_10_0" class="timeText" fill="grey" font-size="16" style="text-anchor: middle;" opacity="0"> Lemma</text><rect id="timeAxisEnt_11" class="timeAxisEnt" x="1138.888888888889" y="70" rx="3" ry="3" height="60" width="151.63492063492063" fill="rgb(50, 198, 191)" opacity="0.4" stroke="rgb(0, 158, 148)" stroke-width="0"></rect><text y="150" x="1214.7063492063492" id="timeText_11_0" class="timeText" fill="grey" font-size="16" style="text-anchor: middle;" opacity="0"> Proof</text><rect id="timeAxisEnt_12" class="timeAxisEnt" x="1294.5238095238096" y="70" rx="3" ry="3" height="60" width="12.825396825396826" fill="rgb(50, 198, 191)" opacity="0.4" stroke="rgb(0, 158, 148)" stroke-width="0"></rect><text y="150" x="1300.936507936508" id="timeText_12_0" class="timeText" fill="grey" font-size="16" style="text-anchor: middle;" opacity="0"> Lemma</text><rect id="timeAxisEnt_13" class="timeAxisEnt" x="1311.3492063492065" y="70" rx="3" ry="3" height="60" width="294.6507936507936" fill="rgb(50, 198, 191)" opacity="0.4" stroke="rgb(0, 158, 148)" stroke-width="0"></rect><text y="150" x="1458.6746031746034" id="timeText_13_0" class="timeText" fill="grey" font-size="16" style="text-anchor: middle;" opacity="0"> Proof</text><defs><filter id="coolShadow" x="-100%" y="-100%" width="300%" height="300%"><feMorphology in="SourceGraphic" result="upperLayer" operator="dilate" radius="0.2 0.2"></feMorphology><feMorphology in="SourceAlpha" result="enlargedAlpha" operator="dilate" radius="0.2 0.2"></feMorphology><feGaussianBlur in="enlargedAlpha" result="bluredAlpha" stdDeviation="3"></feGaussianBlur><feOffset in="bluredAlpha" result="lowerLayer" dy="1"></feOffset><feMerge><feMergeNode in="lowerLayer"></feMergeNode><feMergeNode in="upperLayer"></feMergeNode></feMerge></filter></defs><path id="1" class="river" d="M15,170.5L19.602,170.5C24.204,170.5,33.407,170.5,42.244,170.5C51.081,170.5,59.55,170.5,153.139,170.5C246.727,170.5,425.434,170.5,536.633,170.5C647.832,170.5,691.523,170.5,734.848,170.5C778.172,170.5,821.13,170.5,847.21,170.5C873.291,170.5,882.494,170.5,903.438,170.5C924.383,170.5,957.067,170.5,979.112,170.5C1001.157,170.5,1012.562,170.5,1044.145,170.5C1075.729,170.5,1127.492,170.5,1203.103,170.5C1278.714,170.5,1378.172,170.5,1434.705,170.5C1491.237,170.5,1504.843,170.5,1526.888,170.5C1548.933,170.5,1579.416,170.5,1597.792,170.5C1616.168,170.5,1622.436,170.5,1625.57,170.5L1628.705,170.5L1628.705,188L1625.57,188C1622.436,188,1616.168,188,1597.792,188C1579.416,188,1548.933,188,1526.888,188C1504.843,188,1491.237,188,1434.705,188C1378.172,188,1278.714,188,1203.103,188C1127.492,188,1075.729,188,1044.145,188C1012.562,188,1001.157,188,979.112,188C957.067,188,924.383,188,903.438,188C882.494,188,873.291,188,847.21,188C821.13,188,778.172,188,734.848,188C691.523,188,647.832,188,536.633,188C425.434,188,246.727,188,153.139,188C59.55,188,51.081,188,42.244,188C33.407,188,24.204,188,19.602,188L15,188Z" fill="#ff9c9c" style="filter: url(&quot;&quot;);"></path><path id="2" class="river" d="M15,153L19.602,153C24.204,153,33.407,153,42.244,153C51.081,153,59.55,153,153.139,153C246.727,153,425.434,153,536.633,153C647.832,153,691.523,153,734.848,153C778.172,153,821.13,153,847.21,153C873.291,153,882.494,153,903.438,153C924.383,153,957.067,153,979.112,153C1001.157,153,1012.562,153,1044.145,153C1075.729,153,1127.492,153,1203.103,153C1278.714,153,1378.172,153,1434.705,153C1491.237,153,1504.843,153,1526.888,153C1548.933,153,1579.416,153,1597.792,153C1616.168,153,1622.436,153,1625.57,153L1628.705,153L1628.705,170.5L1625.57,170.5C1622.436,170.5,1616.168,170.5,1597.792,170.5C1579.416,170.5,1548.933,170.5,1526.888,170.5C1504.843,170.5,1491.237,170.5,1434.705,170.5C1378.172,170.5,1278.714,170.5,1203.103,170.5C1127.492,170.5,1075.729,170.5,1044.145,170.5C1012.562,170.5,1001.157,170.5,979.112,170.5C957.067,170.5,924.383,170.5,903.438,170.5C882.494,170.5,873.291,170.5,847.21,170.5C821.13,170.5,778.172,170.5,734.848,170.5C691.523,170.5,647.832,170.5,536.633,170.5C425.434,170.5,246.727,170.5,153.139,170.5C59.55,170.5,51.081,170.5,42.244,170.5C33.407,170.5,24.204,170.5,19.602,170.5L15,170.5Z" fill="#f4f4d0" style="filter: url(&quot;#coolShadow&quot;);"></path><path id="3" class="river" d="M15,188L19.602,188C24.204,188,33.407,188,42.244,188C51.081,188,59.55,188,153.139,188C246.727,188,425.434,188,536.633,188C647.832,188,691.523,188,734.848,188C778.172,188,821.13,188,847.21,188C873.291,188,882.494,188,903.438,188C924.383,188,957.067,188,979.112,188C1001.157,188,1012.562,188,1044.145,188C1075.729,188,1127.492,188,1203.103,188C1278.714,188,1378.172,188,1434.705,188C1491.237,188,1504.843,188,1526.888,188C1548.933,188,1579.416,188,1597.792,188C1616.168,188,1622.436,188,1625.57,188L1628.705,188L1628.705,188L1625.57,188C1622.436,188,1616.168,188,1597.792,188C1579.416,188,1548.933,188,1526.888,188C1504.843,188,1491.237,188,1434.705,188C1378.172,188,1278.714,188,1203.103,188C1127.492,188,1075.729,188,1044.145,188C1012.562,188,1001.157,188,979.112,188C957.067,188,924.383,188,903.438,188C882.494,188,873.291,188,847.21,188C821.13,188,778.172,188,734.848,188C691.523,188,647.832,188,536.633,188C425.434,188,246.727,188,153.139,188C59.55,188,51.081,188,42.244,188C33.407,188,24.204,188,19.602,188L15,188Z" fill="#6f8be0" style="filter: url(&quot;&quot;);"></path></g></svg>