<?xml version="1.0" standalone="no"?>
<!DOCTYPE svg PUBLIC "-//W3C//DTD SVG 1.1//EN" "http://www.w3.org/Graphics/SVG/1.1/DTD/svg11.dtd">
<svg t="1679468177819" class="icon" viewBox="0 0 15024 15024" version="1.1" xmlns="http://www.w3.org/2000/svg" p-id="2610" xmlns:xlink="http://www.w3.org/1999/xlink" width="5000" height="5000">
<g width="665" height="629"><path d="M1.824,-91.206A91.225,91.225,0,0,1,21.526,-88.648L3.539,-14.576A15,15,0,0,0,0.3,-14.997Z" class="curOverArc fa_root na_0" transform="translate(337.5,279.5)" stroke="rgb(91, 107, 255)" stroke-width="10" opacity="1" stroke-dasharray="0" stroke-linejoin="round" fill="rgb(91, 107, 255)"></path><path d="M8.312,-207.677A207.844,207.844,0,0,1,42.532,-203.445L21.737,-103.977A106.225,106.225,0,0,0,4.248,-106.14Z" class="curOverArc fa_0 na_1" transform="translate(337.5,279.5)" stroke="rgb(97, 113, 255)" stroke-width="10" opacity="1" stroke-dasharray="0" stroke-linejoin="round" fill="rgb(97, 113, 255)"></path><path d="M33.405,-116.956A121.633,121.633,0,0,1,78.103,-93.244L9.632,-11.499A15,15,0,0,0,4.12,-14.423Z" class="curOverArc fa_root na_2" transform="translate(337.5,279.5)" stroke="rgb(6, 214, 160)" stroke-width="10" opacity="1" stroke-dasharray="0" stroke-linejoin="round" fill="rgb(6, 214, 160)"></path><path d="M69.875,-227.325A237.822,237.822,0,0,1,144.129,-189.173L82.804,-108.683A136.633,136.633,0,0,0,40.144,-130.602Z" class="curOverArc fa_2 na_3" transform="translate(337.5,279.5)" stroke="rgb(17, 216, 164)" stroke-width="10" opacity="1" stroke-dasharray="0" stroke-linejoin="round" fill="rgb(17, 216, 164)"></path><path d="M83.794,-254.376A267.822,267.822,0,0,1,94.484,-250.602L89.192,-236.567A252.822,252.822,0,0,0,79.1,-240.13Z" class="curOverArc fa_3 na_4" transform="translate(337.5,279.5)" stroke="rgb(145, 237, 213)" stroke-width="10" opacity="1" stroke-dasharray="0" stroke-linejoin="round" fill="rgb(145, 237, 213)"></path><path d="M95.5,-271.517A287.822,287.822,0,0,0,89.543,-273.539L87.987,-268.787A282.822,282.822,0,0,1,93.841,-266.8Z" class="curOverArc fa_4 na_5" transform="translate(337.5,279.5)" stroke="rgb(189, 244, 230)" stroke-width="10" opacity="1" stroke-dasharray="0" stroke-linejoin="round" fill="rgb(189, 244, 230)"></path><path d="M104.43,-246.624A267.822,267.822,0,0,1,106.165,-245.882L100.219,-232.11A252.822,252.822,0,0,0,98.581,-232.811Z" class="curOverArc fa_3 na_6" transform="translate(337.5,279.5)" stroke="rgb(161, 240, 219)" stroke-width="10" opacity="1" stroke-dasharray="0" stroke-linejoin="round" fill="rgb(161, 240, 219)"></path><path d="M117.506,-262.743A287.822,287.822,0,0,0,107.846,-266.854L105.973,-262.218A282.822,282.822,0,0,1,115.465,-258.179Z" class="curOverArc fa_6 na_7" transform="translate(337.5,279.5)" stroke="rgb(194, 245, 232)" stroke-width="10" opacity="1" stroke-dasharray="0" stroke-linejoin="round" fill="rgb(194, 245, 232)"></path><path d="M115.913,-241.439A267.822,267.822,0,0,1,142.376,-226.843L134.402,-214.138A252.822,252.822,0,0,0,109.421,-227.917Z" class="curOverArc fa_3 na_8" transform="translate(337.5,279.5)" stroke="rgb(111, 231, 200)" stroke-width="10" opacity="1" stroke-dasharray="0" stroke-linejoin="round" fill="rgb(111, 231, 200)"></path><path d="M129.733,-256.926A287.822,287.822,0,0,1,143.794,-249.329L141.296,-244.998A282.822,282.822,0,0,0,127.479,-252.463Z" class="curOverArc fa_8 na_9" transform="translate(337.5,279.5)" stroke="rgb(127, 234, 206)" stroke-width="10" opacity="1" stroke-dasharray="0" stroke-linejoin="round" fill="rgb(127, 234, 206)"></path><path d="M106.221,-116.974A158.006,158.006,0,0,1,157.233,-15.601L14.927,-1.481A15,15,0,0,0,10.084,-11.105Z" class="curOverArc fa_root na_10" transform="translate(337.5,279.5)" stroke="rgb(255, 120, 90)" stroke-width="10" opacity="1" stroke-dasharray="0" stroke-linejoin="round" fill="rgb(255, 120, 90)"></path><path d="M189.43,-200.403A275.762,275.762,0,0,1,272.824,-40.148L171.162,-25.188A173.006,173.006,0,0,0,118.843,-125.727Z" class="curOverArc fa_10 na_11" transform="translate(337.5,279.5)" stroke="rgb(255, 124, 94)" stroke-width="10" opacity="1" stroke-dasharray="0" stroke-linejoin="round" fill="rgb(255, 124, 94)"></path><path d="M214.44,-217.959A305.762,305.762,0,0,1,280.424,-121.873L266.667,-115.894A290.762,290.762,0,0,0,203.92,-207.267Z" class="curOverArc fa_11 na_12" transform="translate(337.5,279.5)" stroke="rgb(255, 158, 135)" stroke-width="10" opacity="1" stroke-dasharray="0" stroke-linejoin="round" fill="rgb(255, 158, 135)"></path><path d="M233.065,-227.601A325.762,325.762,0,0,1,252.136,-206.274L248.266,-203.108A320.762,320.762,0,0,0,229.487,-224.107Z" class="curOverArc fa_12 na_13" transform="translate(337.5,279.5)" stroke="rgb(255, 203, 191)" stroke-width="10" opacity="1" stroke-dasharray="0" stroke-linejoin="round" fill="rgb(255, 203, 191)"></path><path d="M260.183,-196.026A325.762,325.762,0,0,1,268.066,-185.1L263.951,-182.259A320.762,320.762,0,0,0,256.189,-193.017Z" class="curOverArc fa_12 na_14" transform="translate(337.5,279.5)" stroke="rgb(255, 211, 201)" stroke-width="10" opacity="1" stroke-dasharray="0" stroke-linejoin="round" fill="rgb(255, 211, 201)"></path><path d="M275.253,-174.232A325.762,325.762,0,0,1,292.874,-142.64L288.378,-140.451A320.762,320.762,0,0,0,271.029,-171.558Z" class="curOverArc fa_12 na_15" transform="translate(337.5,279.5)" stroke="rgb(255, 199, 186)" stroke-width="10" opacity="1" stroke-dasharray="0" stroke-linejoin="round" fill="rgb(255, 199, 186)"></path><path d="M285.073,-110.562A305.762,305.762,0,0,1,287.663,-103.638L273.551,-98.554A290.762,290.762,0,0,0,271.088,-105.138Z" class="curOverArc fa_11 na_16" transform="translate(337.5,279.5)" stroke="rgb(255, 207, 196)" stroke-width="10" opacity="1" stroke-dasharray="0" stroke-linejoin="round" fill="rgb(255, 207, 196)"></path><path d="M306.015,-111.696A325.762,325.762,0,0,0,303.068,-119.46L298.417,-117.627A320.762,320.762,0,0,1,301.318,-109.982Z" class="curOverArc fa_16 na_17" transform="translate(337.5,279.5)" stroke="rgb(255, 220, 213)" stroke-width="10" opacity="1" stroke-dasharray="0" stroke-linejoin="round" fill="rgb(255, 220, 213)"></path><path d="M291.577,-92.052A305.762,305.762,0,0,1,300.157,-58.28L285.432,-55.421A290.762,290.762,0,0,0,277.273,-87.536Z" class="curOverArc fa_11 na_18" transform="translate(337.5,279.5)" stroke="rgb(255, 195, 181)" stroke-width="10" opacity="1" stroke-dasharray="0" stroke-linejoin="round" fill="rgb(255, 195, 181)"></path><path d="M312.548,-91.841A325.762,325.762,0,0,1,317.126,-74.514L312.258,-73.371A320.762,320.762,0,0,0,307.751,-90.431Z" class="curOverArc fa_18 na_19" transform="translate(337.5,279.5)" stroke="rgb(255, 202, 190)" stroke-width="10" opacity="1" stroke-dasharray="0" stroke-linejoin="round" fill="rgb(255, 202, 190)"></path><path d="M159.723,-9.418A160,160,0,1,1,-3.2,-159.968L-0.3,-14.997A15,15,0,1,0,14.974,-0.883Z" class="curOverArc fa_root na_20" transform="translate(337.5,279.5)" stroke="rgb(125, 98, 211)" stroke-width="10" opacity="1" stroke-dasharray="0" stroke-linejoin="round" fill="rgb(125, 98, 211)"></path><path d="M257.638,-10.027A257.833,257.833,0,0,1,-257.33,16.091L-174.659,10.922A175,175,0,0,0,174.868,-6.806Z" class="curOverArc fa_20 na_21" transform="translate(337.5,279.5)" stroke="rgb(156, 135, 221)" stroke-width="10" opacity="1" stroke-dasharray="0" stroke-linejoin="round" fill="rgb(156, 135, 221)"></path><path d="M-189.952,4.265A190,190,0,0,1,-188.888,-20.528L-173.976,-18.908A175,175,0,0,0,-174.956,3.928Z" class="curOverArc fa_20 na_22" transform="translate(337.5,279.5)" stroke="rgb(213, 204, 241)" stroke-width="10" opacity="1" stroke-dasharray="0" stroke-linejoin="round" fill="rgb(213, 204, 241)"></path><path d="M-187.916,-28.065A190,190,0,0,1,-187.84,-28.568L-173.011,-26.313A175,175,0,0,0,-173.08,-25.85Z" class="curOverArc fa_20 na_23" transform="translate(337.5,279.5)" stroke="rgb(215, 207, 242)" stroke-width="10" opacity="1" stroke-dasharray="0" stroke-linejoin="round" fill="rgb(215, 207, 242)"></path><path d="M-186.547,-36.057A190,190,0,0,1,-177.53,-67.698L-163.515,-62.354A175,175,0,0,0,-171.82,-33.21Z" class="curOverArc fa_20 na_24" transform="translate(337.5,279.5)" stroke="rgb(212, 203, 240)" stroke-width="10" opacity="1" stroke-dasharray="0" stroke-linejoin="round" fill="rgb(212, 203, 240)"></path><path d="M-215.124,-46.062A220,220,0,0,1,-212.412,-57.281L-197.93,-53.375A205,205,0,0,0,-200.456,-42.921Z" class="curOverArc fa_24 na_25" transform="translate(337.5,279.5)" stroke="rgb(226, 220, 245)" stroke-width="10" opacity="1" stroke-dasharray="0" stroke-linejoin="round" fill="rgb(226, 220, 245)"></path><path d="M-188.043,-80.461A204.534,204.534,0,0,1,-107.276,-174.143L-91.786,-148.998A175,175,0,0,0,-160.89,-68.843Z" class="curOverArc fa_20 na_26" transform="translate(337.5,279.5)" stroke="rgb(203, 193, 238)" stroke-width="10" opacity="1" stroke-dasharray="0" stroke-linejoin="round" fill="rgb(203, 193, 238)"></path><path d="M-93.104,-165.625A190,190,0,0,1,-80.638,-172.039L-74.272,-158.457A175,175,0,0,0,-85.754,-152.549Z" class="curOverArc fa_20 na_27" transform="translate(337.5,279.5)" stroke="rgb(214, 205, 241)" stroke-width="10" opacity="1" stroke-dasharray="0" stroke-linejoin="round" fill="rgb(214, 205, 241)"></path><path d="M-103.948,-193.894A220,220,0,0,1,-100.959,-195.467L-94.076,-182.139A205,205,0,0,0,-96.861,-180.674Z" class="curOverArc fa_27 na_28" transform="translate(337.5,279.5)" stroke="rgb(221, 214, 243)" stroke-width="10" opacity="1" stroke-dasharray="0" stroke-linejoin="round" fill="rgb(221, 214, 243)"></path><path d="M-73.694,-175.126A190,190,0,0,1,-65.678,-178.287L-60.493,-164.212A175,175,0,0,0,-67.876,-161.301Z" class="curOverArc fa_20 na_29" transform="translate(337.5,279.5)" stroke="rgb(214, 206, 241)" stroke-width="10" opacity="1" stroke-dasharray="0" stroke-linejoin="round" fill="rgb(214, 206, 241)"></path><path d="M-81.257,-204.444A220,220,0,0,0,-83.25,-203.64L-77.574,-189.756A205,205,0,0,1,-75.717,-190.504Z" class="curOverArc fa_29 na_30" transform="translate(337.5,279.5)" stroke="rgb(224, 217, 244)" stroke-width="10" opacity="1" stroke-dasharray="0" stroke-linejoin="round" fill="rgb(224, 217, 244)"></path><path d="M-58.496,-180.771A190,190,0,0,1,-15.691,-189.351L-14.452,-174.402A175,175,0,0,0,-53.878,-166.5Z" class="curOverArc fa_20 na_31" transform="translate(337.5,279.5)" stroke="rgb(211, 202, 240)" stroke-width="10" opacity="1" stroke-dasharray="0" stroke-linejoin="round" fill="rgb(211, 202, 240)"></path><path d="M-63.533,-210.627A220,220,0,0,1,-38.39,-216.625L-35.772,-201.855A205,205,0,0,0,-59.201,-196.266Z" class="curOverArc fa_31 na_32" transform="translate(337.5,279.5)" stroke="rgb(221, 214, 243)" stroke-width="10" opacity="1" stroke-dasharray="0" stroke-linejoin="round" fill="rgb(221, 214, 243)"></path></g><g width="685" height="629" transform="translate(35,600)"></g><g width="665" height="629"><text y="208.4747327610732" x="478.64235664142984" fill="white" font-size="14" transform="rotate(-26.71232876712329 478.64235664142984 208.4747327610732)" style="text-anchor: end;">Map</text><text y="527.0146712825127" x="350.05333035310184" fill="white" font-size="14" transform="rotate(177.09658788721103 350.05333035310184 527.0146712825127)" style="text-anchor: middle;">Example</text><text y="412.5510753305614" x="248.63261929492188" fill="white" font-size="14" transform="rotate(303.7397260273973 248.63261929492188 412.5510753305614)" style="text-anchor: start;">Chaining</text><text y="397.0110746475154" x="228.9129504260012" fill="white" font-size="14" transform="rotate(312.7397260273973 228.9129504260012 397.0110746475154)" style="text-anchor: start;">for</text><text y="378.5775613097503" x="211.8670550973485" fill="white" font-size="14" transform="rotate(321.7397260273973 211.8670550973485 378.5775613097503)" style="text-anchor: start;">Phone</text><text y="357.7044295929652" x="197.9146598240383" fill="white" font-size="14" transform="rotate(330.7397260273973 197.9146598240383 357.7044295929652)" style="text-anchor: start;">Book</text></g><g width="665" height="629"></g><g width="665" height="629"></g><defs><filter id="coolShadow" x="-100%" y="-100%" width="300%" height="300%"><feMorphology in="SourceGraphic" result="upperLayer" operator="dilate" radius="0.2 0.2"></feMorphology><feMorphology in="SourceAlpha" result="enlargedAlpha" operator="dilate" radius="0.2 0.2"></feMorphology><feGaussianBlur in="enlargedAlpha" result="bluredAlpha" stdDeviation="3"></feGaussianBlur><feOffset in="bluredAlpha" result="lowerLayer" dy="1"></feOffset><feMerge><feMergeNode in="lowerLayer"></feMergeNode><feMergeNode in="upperLayer"></feMergeNode></feMerge></filter></defs><g></g></svg>