<?xml version="1.0" standalone="no"?>
<!DOCTYPE svg PUBLIC "-//W3C//DTD SVG 1.1//EN" "http://www.w3.org/Graphics/SVG/1.1/DTD/svg11.dtd">
<svg t="1679468177819" class="icon" viewBox="0 0 15024 15024" version="1.1" xmlns="http://www.w3.org/2000/svg" p-id="2610" xmlns:xlink="http://www.w3.org/1999/xlink" width="5000" height="5000">
<g width="665" height="629"><path d="M2.03,-101.495A101.515,101.515,0,0,1,29.976,-96.989L4.429,-14.331A15,15,0,0,0,0.3,-14.997Z" class="curOverArc fa_root na_0" transform="translate(337.5,279.5)" stroke="rgb(91, 107, 255)" stroke-width="10" opacity="1" stroke-dasharray="0" stroke-linejoin="round" fill="rgb(91, 107, 255)" style="filter: url(&quot;&quot;);"></path><path d="M6.478,-161.86A161.99,161.99,0,0,1,25.785,-159.924L18.547,-115.03A116.515,116.515,0,0,0,4.659,-116.422Z" class="curOverArc fa_0 na_1" transform="translate(337.5,279.5)" stroke="rgb(140, 151, 255)" stroke-width="10" opacity="1" stroke-dasharray="0" stroke-linejoin="round" fill="rgb(140, 151, 255)" style="filter: url(&quot;&quot;);"></path><path d="M53.321,-150.854A160,160,0,1,1,-132.811,89.225L-12.451,8.365A15,15,0,1,0,4.999,-14.143Z" class="curOverArc fa_root na_2" transform="translate(337.5,279.5) scale(1)" stroke="rgb(6, 214, 160)" stroke-width="10" opacity="1" stroke-dasharray="0" stroke-linejoin="round" fill="rgb(6, 214, 160)" style="filter: url(&quot;&quot;);"></path><path d="M69.433,-184.601A197.227,197.227,0,0,1,179.082,-82.631L158.9,-73.319A175,175,0,0,0,61.608,-163.797Z" class="curOverArc fa_2 na_3" transform="translate(337.5,279.5) scale(1)" stroke="rgb(143, 236, 212)" stroke-width="10" opacity="1" stroke-dasharray="0" stroke-linejoin="round" fill="rgb(143, 236, 212)" style="filter: url(&quot;&quot;);"></path><path d="M181.929,-75.274A196.887,196.887,0,0,1,183.453,71.481L163.059,63.535A175,175,0,0,0,161.705,-66.906Z" class="curOverArc fa_2 na_4" transform="translate(337.5,279.5) scale(1)" stroke="rgb(143, 237, 212)" stroke-width="10" opacity="1" stroke-dasharray="0" stroke-linejoin="round" fill="rgb(143, 237, 212)" style="filter: url(&quot;&quot;);"></path><path d="M167.215,72.984A182.449,182.449,0,0,1,143.09,113.193L137.248,108.572A175,175,0,0,0,160.388,70.004Z" class="curOverArc fa_2 na_5" transform="translate(337.5,279.5)" stroke="rgb(167, 240, 221)" stroke-width="10" opacity="1" stroke-dasharray="0" stroke-linejoin="round" fill="rgb(167, 240, 221)" style="filter: url(&quot;&quot;);"></path><path d="M145.505,124.881A191.747,191.747,0,0,1,57.779,182.835L52.732,166.866A175,175,0,0,0,132.797,113.974Z" class="curOverArc fa_2 na_6" transform="translate(337.5,279.5)" stroke="rgb(153, 238, 216)" stroke-width="10" opacity="1" stroke-dasharray="0" stroke-linejoin="round" fill="rgb(153, 238, 216)" style="filter: url(&quot;&quot;);"></path><path d="M47.976,176.028A182.449,182.449,0,0,1,1.526,182.442L1.463,174.994A175,175,0,0,0,46.017,168.841Z" class="curOverArc fa_2 na_7" transform="translate(337.5,279.5)" stroke="rgb(167, 240, 221)" stroke-width="10" opacity="1" stroke-dasharray="0" stroke-linejoin="round" fill="rgb(167, 240, 221)" style="filter: url(&quot;&quot;);"></path><path d="M-6.351,200.679A200.78,200.78,0,0,1,-166.087,112.817L-144.761,98.332A175,175,0,0,0,-5.536,174.912Z" class="curOverArc fa_2 na_8" transform="translate(337.5,279.5)" stroke="rgb(135, 235, 209)" stroke-width="10" opacity="1" stroke-dasharray="0" stroke-linejoin="round" fill="rgb(135, 235, 209)" style="filter: url(&quot;&quot;);"></path><path d="M-136.273,83.843A160,160,0,0,1,-10.866,-159.631L-1.019,-14.965A15,15,0,0,0,-12.776,7.86Z" class="curOverArc fa_root na_9" transform="translate(337.5,279.5)" stroke="rgb(255, 120, 90)" stroke-width="10" opacity="1" stroke-dasharray="0" stroke-linejoin="round" fill="rgb(255, 120, 90)" style="filter: url(&quot;&quot;);"></path><path d="M-163.446,96.109A189.609,189.609,0,0,1,-181.684,54.244L-167.686,50.065A175,175,0,0,0,-150.853,88.704Z" class="curOverArc fa_9 na_10" transform="translate(337.5,279.5)" stroke="rgb(255, 202, 190)" stroke-width="10" opacity="1" stroke-dasharray="0" stroke-linejoin="round" fill="rgb(255, 202, 190)" style="filter: url(&quot;&quot;);"></path><path d="M-194.04,49.575A200.273,200.273,0,0,1,-194.976,-45.755L-170.372,-39.981A175,175,0,0,0,-169.554,43.319Z" class="curOverArc fa_9 na_11" transform="translate(337.5,279.5)" stroke="rgb(255, 191, 176)" stroke-width="10" opacity="1" stroke-dasharray="0" stroke-linejoin="round" fill="rgb(255, 191, 176)" style="filter: url(&quot;&quot;);"></path><path d="M-182.715,-50.665A189.609,189.609,0,0,1,-165.302,-92.881L-152.566,-85.724A175,175,0,0,0,-168.637,-46.762Z" class="curOverArc fa_9 na_12" transform="translate(337.5,279.5)" stroke="rgb(255, 202, 190)" stroke-width="10" opacity="1" stroke-dasharray="0" stroke-linejoin="round" fill="rgb(255, 202, 190)" style="filter: url(&quot;&quot;);"></path><path d="M-183.748,-113.143A215.788,215.788,0,0,1,-12.901,-215.402L-10.462,-174.687A175,175,0,0,0,-149.016,-91.757Z" class="curOverArc fa_9 na_13" transform="translate(337.5,279.5)" stroke="rgb(255, 169, 149)" stroke-width="10" opacity="1" stroke-dasharray="0" stroke-linejoin="round" fill="rgb(255, 169, 149)" style="filter: url(&quot;&quot;);"></path></g><g width="685" height="629" transform="translate(35,600)"></g><g width="665" height="629"><text y="142.39644177405032" x="465.0007819431754" fill="white" font-size="14" transform="rotate(42.92158662987711 465.0007819431754 142.39644177405032)" style="text-anchor: middle;">HasKey</text><text y="277.5600916198024" x="524.3766488880651" fill="white" font-size="14" transform="rotate(89.40525169228783 524.3766488880651 277.5600916198024)" style="text-anchor: middle;">Example</text><text y="368.22201067670295" x="485.3746233420488" fill="grey" font-size="14" transform="rotate(120.96296925759418 485.3746233420488 368.22201067670295)" style="text-anchor: middle;">Get</text><text y="431.14429288845724" x="437.6797980218485" fill="white" font-size="14" transform="rotate(146.55030782405876 437.6797980218485 431.14429288845724)" style="text-anchor: middle;">Example</text><text y="450.3274487916399" x="361.0898738107993" fill="grey" font-size="14" transform="rotate(172.1376463905234 361.0898738107993 450.3274487916399)" style="text-anchor: middle;">Set</text><text y="446.66102593330334" x="245.55369134935444" fill="white" font-size="14" transform="rotate(208.8128316691227 245.55369134935444 446.66102593330334)" style="text-anchor: middle;">Example</text><text y="387.15361897844866" x="455.86679568545816" fill="white" font-size="14" transform="rotate(42.28625954198475 455.86679568545816 387.15361897844866)" style="text-anchor: end;">Implementation</text><text y="351.23394751233593" x="172.83746137801765" fill="grey" font-size="14" transform="rotate(246.46002733100795 172.83746137801765 351.23394751233593)" style="text-anchor: middle;">Lemma</text><text y="281.36861256511804" x="147.23613504133843" fill="grey" font-size="14" transform="rotate(269.43730686083734 147.23613504133843 281.36861256511804)" style="text-anchor: middle;">Proof</text><text y="211.01393294128533" x="171.46033766004092" fill="grey" font-size="14" transform="rotate(292.4145863906667 171.46033766004092 211.01393294128533)" style="text-anchor: middle;">Lemma</text><text y="102.9247307037308" x="231.8118840676194" fill="white" font-size="14" transform="rotate(329.09761160495566 231.8118840676194 102.9247307037308)" style="text-anchor: middle;">Proof</text><text y="195.3012405231291" x="201.4464484015355" fill="white" font-size="14" transform="rotate(391.75190839694653 201.4464484015355 195.3012405231291)" style="text-anchor: start;">Asymptotics</text></g><g width="665" height="629"><g></g></g><g width="665" height="629"></g><defs><filter id="coolShadow" x="-100%" y="-100%" width="300%" height="300%"><feMorphology in="SourceGraphic" result="upperLayer" operator="dilate" radius="0.2 0.2"></feMorphology><feMorphology in="SourceAlpha" result="enlargedAlpha" operator="dilate" radius="0.2 0.2"></feMorphology><feGaussianBlur in="enlargedAlpha" result="bluredAlpha" stdDeviation="3"></feGaussianBlur><feOffset in="bluredAlpha" result="lowerLayer" dy="1"></feOffset><feMerge><feMergeNode in="lowerLayer"></feMergeNode><feMergeNode in="upperLayer"></feMergeNode></feMerge></filter></defs><g></g></svg>