<?xml version="1.0" standalone="no"?>
<!DOCTYPE svg PUBLIC "-//W3C//DTD SVG 1.1//EN" "http://www.w3.org/Graphics/SVG/1.1/DTD/svg11.dtd">
<svg t="1679468177819" class="icon" viewBox="0 0 15024 15024" version="1.1" xmlns="http://www.w3.org/2000/svg" p-id="2610" xmlns:xlink="http://www.w3.org/1999/xlink" width="5000" height="5000">
<g id="axisGroups" width="15701" height="1360"></g><g id="groups" width="15701" height="1360" transform="translate(269.0749577476487,113) scale(1)"><g id="backG" width="1570" height="360"><rect id="backRect0" class="rect" x="195" y="18.661087866108787" rx="20" ry="20" height="203.68200836820085" width="359.8535564853556" fill="rgb(125, 66, 206)" opacity="0.1" stroke="white" stroke-width="1.5px"></rect><rect id="backRect2" class="rect" x="687.510460251046" y="-20" rx="20" ry="20" height="262.092050209205" width="1208.7552301255232" fill="rgb(248, 134, 124)" opacity="0.1" stroke="white" stroke-width="1.5px"></rect><rect id="backRect9" class="rect" x="2009.1736401673643" y="-1.9246861924686272" rx="20" ry="20" height="245.69037656903765" width="873.2782426778244" fill="rgb(50, 198, 191)" opacity="0.1" stroke="white" stroke-width="1.5px"></rect></g><g id="arcG" width="1570" height="360"></g><g id="timeLineG" width="1570" height="360"><path d="M20,80C75,80,125,80,180,80M332.6778242677824,80C387.6778242677824,80,381.33891213389114,180,485.83891213389114,180M539.1820083682007,180C594.1820083682007,180,617.510460251046,80,672.510460251046,80M902.510460251046,80C957.510460251046,80,912.5104602510461,180,973.2029288702929,180M1130.2280334728034,180C1185.2280334728034,180,1099.7154811715482,180,1176.7154811715482,180M1245.7907949790797,180C1300.7907949790797,180,1259.253138075314,180,1304.244769874477,180M1421.9393305439332,180C1476.9393305439332,180,1411.0920502092051,180,1488.0920502092051,180M1552.4811715481171,180C1607.4811715481171,180,1568.2866108786611,180,1612.5251046025105,180M1732.7301255230127,180C1787.7301255230127,180,1720.6276150627616,180,1797.6276150627616,180M1870.7196652719665,180C1925.7196652719665,180,1939.1736401673643,80,1994.173640167364,80M2188.023012552301,80C2243.023012552301,80,2216.0983263598328,180,2320.5983263598328,180M2376.284518828452,180C2431.284518828452,180,2396.4414225941423,180,2473.4414225941423,180M2536.826359832636,180C2591.826359832636,180,2553.1338912133892,180,2630.1338912133892,180M2682.4728033472807,180C2737.4728033472807,180,2704.303347280335,180,2781.303347280335,180M2856.069037656904,180" stroke="rgb(200,200,200)" class="timeLine " id="timeLine " stroke-dasharray="0" stroke-width="5" fill="none"></path><path d="M1051.7154811715482,211.20502092050208C1207.4037656903765,269.54728033472804,1207.4037656903765,269.54728033472804,1363.0920502092051,203.3389121338912" stroke="grey" class="basicRel source5 target3" id="basicRel5_3" stroke-dasharray="9,9" stroke-width="5" fill="none" opacity="0"></path><path d="M1051.7154811715482,211.20502092050208C1362.171548117155,331.7054393305439,1362.171548117155,331.7054393305439,1672.6276150627616,203.84100418410043" stroke="grey" class="basicRel source7 target3" id="basicRel7_3" stroke-dasharray="9,9" stroke-width="5" fill="none" opacity="0"></path><path d="M2359.6129707112973,204.34309623430963L2359.6129707112973,73.0243599372412L2645.968619246862,73.0243599372412L2645.968619246862,202.6694560669456" stroke="rgb(200,200,200)" class="similarityRel source10 target12" id="similarityRel10_12" stroke-dasharray="0" stroke-width="5" fill="none" opacity="0"></path><path d="M2518.2301255230127,208.19246861924685L2518.2301255230127,72.51933623824368L2802.7447698744772,72.51933623824368L2802.7447698744772,213.88284518828453" stroke="rgb(200,200,200)" class="similarityRel source11 target13" id="similarityRel11_13" stroke-dasharray="0" stroke-width="5" fill="none" opacity="0"></path></g><g id="circleG" width="1570" height="360"><circle id="entCircle_0" class="entCircle" opacity="1" cx="256.3389121338912" cy="80" r="21.338912133891213" fill="rgb(173, 216, 209)"></circle><path d="M236.335,89.24L237.142,89.24C237.949,89.24,239.564,89.24,240.457,87.517C241.35,85.794,241.522,82.347,241.694,82.347C241.867,82.347,242.039,85.794,247.56,87.517C253.08,89.24,263.95,89.24,269.384,89.24L274.819,89.24" stroke="white" class="sonLine " id="sonLine " stroke-dasharray="0" stroke-width="2" fill="none"></path><circle id="linePoint_0" class="linePoint" opacity="0" cx="239.2446404051217" cy="82.0847032483852" r="5" fill="red"></circle><path d="M0,-43.48A43.48,43.48,0,1,1,0,43.48L0,28.48A28.48,28.48,0,1,0,0,-28.48Z" class="type f0 t1" transform="translate(256.3389121338912,80)" stroke="#ff9c9c" stroke-width="3" stroke-dasharray="0" stroke-linejoin="round" fill="#ff9c9c" opacity="1"></path><path d="M0,43.48A43.48,43.48,0,1,1,0,-43.48L0,-28.48A28.48,28.48,0,1,0,0,28.48Z" class="type f0 t2" transform="translate(256.3389121338912,80)" stroke="#f4f4d0" stroke-width="3" stroke-dasharray="0" stroke-linejoin="round" fill="#f4f4d0" opacity="1"></path><path d="M0,-58.48A58.48,58.48,0,1,1,-50.645,-29.24L-40.253,-23.24A46.48,46.48,0,1,0,0,-46.48Z" class="son f0 s1" transform="translate(256.3389121338912,80)" stroke="rgb(203, 230, 209)" stroke-width="3" stroke-dasharray="0" stroke-linejoin="round" fill="rgb(203, 230, 209)" opacity="1"></path><text y="167.72005999561068" x="256.3389121338912" id="text_0_0" class="text" fill="grey" font-size="16" style="text-anchor: middle;"> Outline</text><circle id="entCircle_1" class="entCircle" opacity="1" cx="512.510460251046" cy="180" r="21.17154811715481" fill="rgb(203, 230, 209)"></circle><path d="M492.632,189.168L493.437,189.168C494.243,189.168,495.854,189.168,496.745,187.484C497.636,185.801,497.807,182.434,497.979,182.434C498.15,182.434,498.321,185.801,503.799,187.484C509.277,189.168,520.061,189.168,525.453,189.168L530.846,189.168" stroke="white" class="sonLine " id="sonLine " stroke-dasharray="0" stroke-width="2" fill="none"></path><circle id="linePoint_1" class="linePoint" opacity="0" cx="495.5502612417178" cy="182.17738647241833" r="5" fill="red"></circle><text y="225.83774626725165" x="512.510460251046" id="text_1_0" class="text" fill="grey" font-size="16" style="text-anchor: middle;"> Chaining</text><text y="250.83774626725165" x="512.510460251046" id="text_1_1" class="text" fill="grey" font-size="16" style="text-anchor: middle;"> Implementation</text><text y="275.83774626725165" x="512.510460251046" id="text_1_3" class="text" fill="grey" font-size="16" style="text-anchor: middle;"> and Analysis</text><circle id="entCircle_2" class="entCircle" opacity="1" cx="787.510460251046" cy="80" r="60" fill="rgb(22, 144, 207)"></circle><path d="M738.51,105.981L739.708,105.981C740.906,105.981,743.301,105.981,746.455,92.9C749.609,79.82,753.521,53.658,757.433,53.658C761.345,53.658,765.258,79.82,778.931,92.9C792.604,105.981,816.038,105.981,827.755,105.981L839.472,105.981" stroke="white" class="sonLine " id="sonLine " stroke-dasharray="0" stroke-width="2" fill="none"></path><circle id="linePoint_2" class="linePoint" opacity="0" cx="751.8641946215982" cy="14.482456105570307" r="5" fill="red"></circle><path d="M0,-76.962A76.962,76.962,0,1,1,0,76.962L0,61.962A61.962,61.962,0,1,0,0,-61.962Z" class="type f2 t1" transform="translate(787.510460251046,80)" stroke="#ff9c9c" stroke-width="3" stroke-dasharray="0" stroke-linejoin="round" fill="#ff9c9c" opacity="1"></path><path d="M0,76.962A76.962,76.962,0,1,1,0,-76.962L0,-61.962A61.962,61.962,0,1,0,0,61.962Z" class="type f2 t2" transform="translate(787.510460251046,80)" stroke="#f4f4d0" stroke-width="3" stroke-dasharray="0" stroke-linejoin="round" fill="#f4f4d0" opacity="1"></path><path d="M0,-91.962A91.962,91.962,0,0,1,73.332,-55.492L63.763,-48.251A79.962,79.962,0,0,0,0,-79.962Z" class="son f2 s3" transform="translate(787.510460251046,80)" stroke="rgb(203, 230, 209)" stroke-width="3" stroke-dasharray="0" stroke-linejoin="round" fill="rgb(203, 230, 209)" opacity="1"></path><path d="M854.4632210614125,29.335758464158353A83.96152422706632,83.96152422706632,0,0,1,868.7551114579771,58.814056528057606" stroke="rgb(200,200,200)" class="midArc " id="midArc " stroke-dasharray="9,5" stroke-width="3" fill="none"></path><path d="M88.986,-23.205A91.962,91.962,0,0,1,73.145,55.737L63.601,48.464A79.962,79.962,0,0,0,77.374,-20.177Z" class="son f2 s4" transform="translate(787.510460251046,80)" stroke="rgb(203, 230, 209)" stroke-width="3" stroke-dasharray="0" stroke-linejoin="round" fill="rgb(203, 230, 209)" opacity="1"></path><path d="M854.292794672714,130.88867614435202A83.96152422706632,83.96152422706632,0,0,1,829.735038901113,152.57149928419938" stroke="rgb(200,200,200)" class="midArc " id="midArc " stroke-dasharray="9,5" stroke-width="3" fill="none"></path><path d="M46.248,79.486A91.962,91.962,0,0,1,35.192,84.961L30.6,73.875A79.962,79.962,0,0,0,40.213,69.114Z" class="son f2 s5" transform="translate(787.510460251046,80)" stroke="rgb(203, 230, 209)" stroke-width="3" stroke-dasharray="0" stroke-linejoin="round" fill="rgb(203, 230, 209)" opacity="1"></path><path d="M819.6411445288644,157.5703337518371A83.96152422706632,83.96152422706632,0,0,1,787.510460251046,163.96152422706632" stroke="rgb(200,200,200)" class="midArc " id="midArc " stroke-dasharray="9,5" stroke-width="3" fill="none"></path><path d="M0,91.962A91.962,91.962,0,0,1,-57.199,72.008L-49.735,62.612A79.962,79.962,0,0,0,0,79.962Z" class="son f2 s6" transform="translate(787.510460251046,80)" stroke="rgb(203, 230, 209)" stroke-width="3" stroke-dasharray="0" stroke-linejoin="round" fill="rgb(203, 230, 209)" opacity="1"></path><path d="M735.2873034297759,145.7440449177967A83.96152422706632,83.96152422706632,0,0,1,714.1033977740402,120.75464058275101" stroke="rgb(200,200,200)" class="midArc " id="midArc " stroke-dasharray="9,5" stroke-width="3" fill="none"></path><path d="M-80.401,44.638A91.962,91.962,0,0,1,-87.229,29.121L-75.846,25.321A79.962,79.962,0,0,0,-69.91,38.813Z" class="son f2 s7" transform="translate(787.510460251046,80)" stroke="rgb(203, 230, 209)" stroke-width="3" stroke-dasharray="0" stroke-linejoin="round" fill="rgb(203, 230, 209)" opacity="1"></path><path d="M707.8698948002454,106.58792743349878A83.96152422706632,83.96152422706632,0,0,1,703.7574125437005,74.08691702549598" stroke="rgb(200,200,200)" class="midArc " id="midArc " stroke-dasharray="9,5" stroke-width="3" fill="none"></path><path d="M-91.733,-6.476A91.962,91.962,0,0,1,-35.192,-84.961L-30.6,-73.875A79.962,79.962,0,0,0,-79.763,-5.631Z" class="son f2 s8" transform="translate(787.510460251046,80)" stroke="rgb(203, 230, 209)" stroke-width="3" stroke-dasharray="0" stroke-linejoin="round" fill="rgb(203, 230, 209)" opacity="1"></path><text y="217.94228634059948" x="787.510460251046" id="text_2_0" class="text" fill="grey" font-size="16" style="text-anchor: middle;"> Implementation</text><circle id="entCircle_3" class="entCircle" opacity="1" cx="1051.7154811715482" cy="180" r="29.20502092050209" fill="rgb(203, 230, 209)"></circle><path d="M1025.812,192.646L1026.698,192.646C1027.585,192.646,1029.358,192.646,1030.569,188.585C1031.779,184.524,1032.426,176.402,1033.073,176.402C1033.72,176.402,1034.368,184.524,1041.69,188.585C1049.012,192.646,1063.01,192.646,1070.009,192.646L1077.008,192.646" stroke="white" class="sonLine " id="sonLine " stroke-dasharray="0" stroke-width="2" fill="none"></path><circle id="linePoint_3" class="linePoint" opacity="0" cx="1029.8373290311488" cy="175.7840831183937" r="5" fill="red"></circle><text y="243.230725088027" x="1051.7154811715482" id="text_3_0" class="text" fill="grey" font-size="16" style="text-anchor: middle;"> HasKey</text><polygon points="1186.1057895302763,194.51882845188285,1236.4004866203516,194.51882845188285,1211.253138075314,150.96234309623432" fill="rgb(250, 199, 88)" id="entE_4" class="entE" stroke-linejoin="round" opacity="1" stroke="rgb(250, 199, 88)" stroke-width="15"></polygon><text y="188" x="1211.253138075314" id="E_0" class="text" fill="white" font-size="28" style="text-anchor: middle;"> E</text><text y="238.0753138075314" x="1211.253138075314" id="text_4_0" class="text" fill="grey" font-size="16" style="text-anchor: middle;"> Example</text><circle id="entCircle_5" class="entCircle" opacity="1" cx="1363.0920502092051" cy="180" r="21.338912133891213" fill="rgb(203, 230, 209)"></circle><path d="M1343.088,189.24L1344.183,189.24C1345.278,189.24,1347.469,189.24,1348.826,187.517C1350.182,185.794,1350.705,182.347,1351.228,182.347C1351.751,182.347,1352.274,185.794,1357.331,187.517C1362.389,189.24,1371.98,189.24,1376.776,189.24L1381.572,189.24" stroke="white" class="sonLine " id="sonLine " stroke-dasharray="0" stroke-width="2" fill="none"></path><circle id="linePoint_5" class="linePoint" opacity="0" cx="1349.2689802913937" cy="182.0847032483852" r="5" fill="red"></circle><text y="226.2000999926845" x="1363.0920502092051" id="text_5_0" class="text" fill="grey" font-size="16" style="text-anchor: middle;"> Get</text><polygon points="1497.1684431960473,193.34728033472803,1543.404778561275,193.34728033472803,1520.2866108786611,153.30543933054395" fill="rgb(250, 199, 88)" id="entE_6" class="entE" stroke-linejoin="round" opacity="1" stroke="rgb(250, 199, 88)" stroke-width="15"></polygon><text y="188" x="1520.2866108786611" id="E_0" class="text" fill="white" font-size="28" style="text-anchor: middle;"> E</text><text y="233.38912133891213" x="1520.2866108786611" id="text_6_0" class="text" fill="grey" font-size="16" style="text-anchor: middle;"> Example</text><circle id="entCircle_7" class="entCircle" opacity="1" cx="1672.6276150627616" cy="180" r="21.84100418410042" fill="rgb(203, 230, 209)"></circle><path d="M1652.247,189.457L1653.611,189.457C1654.976,189.457,1657.704,189.457,1659.344,187.612C1660.983,185.767,1661.533,182.077,1662.083,182.077C1662.633,182.077,1663.184,185.767,1668.093,187.612C1673.003,189.457,1682.273,189.457,1686.908,189.457L1691.542,189.457" stroke="white" class="sonLine " id="sonLine " stroke-dasharray="0" stroke-width="2" fill="none"></path><circle id="linePoint_7" class="linePoint" opacity="0" cx="1660.3518680232937" cy="181.79631044543243" r="5" fill="red"></circle><text y="227.28716116898295" x="1672.6276150627616" id="text_7_0" class="text" fill="grey" font-size="16" style="text-anchor: middle;"> Set</text><polygon points="1807.2869937402488,195.52301255230125,1861.0602865944793,195.52301255230125,1834.173640167364,148.9539748953975" fill="rgb(250, 199, 88)" id="entE_8" class="entE" stroke-linejoin="round" opacity="1" stroke="rgb(250, 199, 88)" stroke-width="15"></polygon><text y="188" x="1834.173640167364" id="E_0" class="text" fill="white" font-size="28" style="text-anchor: middle;"> E</text><text y="242.092050209205" x="1834.173640167364" id="text_8_0" class="text" fill="grey" font-size="16" style="text-anchor: middle;"> Example</text><circle id="entCircle_9" class="entCircle" opacity="1" cx="2091.0983263598328" cy="80" r="41.92468619246863" fill="rgb(82, 173, 208)"></circle><path d="M2055.655,98.154L2058.522,98.154C2061.389,98.154,2067.123,98.154,2071.112,89.968C2075.101,81.781,2077.346,65.408,2079.59,65.408C2081.835,65.408,2084.079,81.781,2092.048,89.968C2100.018,98.154,2113.712,98.154,2120.559,98.154L2127.406,98.154" stroke="white" class="sonLine " id="sonLine " stroke-dasharray="0" stroke-width="2" fill="none"></path><circle id="linePoint_9" class="linePoint" opacity="0" cx="2077.482885126695" cy="57.53854737767317" r="5" fill="red"></circle><path d="M0,-61.308A61.308,61.308,0,1,1,0,61.308L0,46.308A46.308,46.308,0,1,0,0,-46.308Z" class="type f9 t1" transform="translate(2091.0983263598328,80)" stroke="#ff9c9c" stroke-width="3" stroke-dasharray="0" stroke-linejoin="round" fill="#ff9c9c" opacity="1"></path><path d="M0,61.308A61.308,61.308,0,1,1,0,-61.308L0,-46.308A46.308,46.308,0,1,0,0,46.308Z" class="type f9 t2" transform="translate(2091.0983263598328,80)" stroke="#f4f4d0" stroke-width="3" stroke-dasharray="0" stroke-linejoin="round" fill="#f4f4d0" opacity="1"></path><path d="M0,-76.308A76.308,76.308,0,0,1,34.247,-68.191L28.861,-57.468A64.308,64.308,0,0,0,0,-64.308Z" class="son f9 s10" transform="translate(2091.0983263598328,80)" stroke="rgb(203, 230, 209)" stroke-width="3" stroke-dasharray="0" stroke-linejoin="round" fill="rgb(203, 230, 209)" opacity="1"></path><path d="M2121.7548304289144,18.95788164741736A68.30784328836853,68.30784328836853,0,0,1,2148.1686968511694,42.464226840387845" stroke="rgb(200,200,200)" class="midArc " id="midArc " stroke-dasharray="9,5" stroke-width="3" fill="none"></path><path d="M63.754,-41.932A76.308,76.308,0,0,1,60.827,46.075L51.262,38.829A64.308,64.308,0,0,0,53.728,-35.338Z" class="son f9 s11" transform="translate(2091.0983263598328,80)" stroke="rgb(203, 230, 209)" stroke-width="3" stroke-dasharray="0" stroke-linejoin="round" fill="rgb(203, 230, 209)" opacity="1"></path><path d="M2145.54872874328,121.2445770373385A68.30784328836853,68.30784328836853,0,0,1,2117.631469551514,142.94405267440328" stroke="rgb(200,200,200)" class="midArc " id="midArc " stroke-dasharray="9,5" stroke-width="3" fill="none"></path><path d="M29.641,70.316A76.308,76.308,0,0,1,20.056,73.625L16.902,62.047A64.308,64.308,0,0,0,24.979,59.258Z" class="son f9 s12" transform="translate(2091.0983263598328,80)" stroke="rgb(203, 230, 209)" stroke-width="3" stroke-dasharray="0" stroke-linejoin="round" fill="rgb(203, 230, 209)" opacity="1"></path><path d="M2109.0517278976777,145.90627305446134A68.30784328836853,68.30784328836853,0,0,1,2073.6932916487185,146.05320750283988" stroke="rgb(200,200,200)" class="midArc " id="midArc " stroke-dasharray="9,5" stroke-width="3" fill="none"></path><path d="M-19.443,73.789A76.308,76.308,0,0,1,-38.154,-66.085L-32.154,-55.692A64.308,64.308,0,0,0,-16.386,62.185Z" class="son f9 s13" transform="translate(2091.0983263598328,80)" stroke="rgb(203, 230, 209)" stroke-width="3" stroke-dasharray="0" stroke-linejoin="round" fill="rgb(203, 230, 209)" opacity="1"></path><text y="194.4617649325528" x="2091.0983263598328" id="text_9_0" class="text" fill="grey" font-size="16" style="text-anchor: middle;"> Asymptotics</text><circle id="entCircle_10" class="entCircle" opacity="1" cx="2348.4414225941423" cy="180" r="22.34309623430962" fill="rgb(203, 230, 209)"></circle><path d="M2327.684,189.675L2329.516,189.675C2331.347,189.675,2335.011,189.675,2337.131,187.704C2339.252,185.734,2339.83,181.792,2340.408,181.792C2340.986,181.792,2341.564,185.734,2346.128,187.704C2350.692,189.675,2359.242,189.675,2363.516,189.675L2367.791,189.675" stroke="white" class="sonLine " id="sonLine " stroke-dasharray="0" stroke-width="2" fill="none"></path><circle id="linePoint_10" class="linePoint" opacity="0" cx="2339.114872525972" cy="181.49240294619955" r="5" fill="red"></circle><text y="228.3742223452814" x="2348.4414225941423" id="text_10_0" class="text" fill="grey" font-size="16" style="text-anchor: middle;"> Lemma</text><circle id="entCircle_11" class="entCircle" opacity="1" cx="2505.1338912133892" cy="180" r="26.19246861924686" fill="rgb(203, 230, 209)"></circle><path d="M2481.49,191.342L2483.625,191.342C2485.76,191.342,2490.031,191.342,2492.574,188.284C2495.118,185.227,2495.935,179.112,2496.752,179.112C2497.569,179.112,2498.386,185.227,2503.563,188.284C2508.741,191.342,2518.279,191.342,2523.048,191.342L2527.817,191.342" stroke="white" class="sonLine " id="sonLine " stroke-dasharray="0" stroke-width="2" fill="none"></path><circle id="linePoint_11" class="linePoint" opacity="0" cx="2495.3573702889767" cy="178.6470127645547" r="5" fill="red"></circle><text y="236.70835803023624" x="2505.1338912133892" id="text_11_0" class="text" fill="grey" font-size="16" style="text-anchor: middle;"> Proof</text><circle id="entCircle_12" class="entCircle" opacity="1" cx="2656.303347280335" cy="180" r="20.669456066945607" fill="rgb(203, 230, 209)"></circle><path d="M2636.801,188.95L2638.799,188.95C2640.796,188.95,2644.791,188.95,2647.032,187.384C2649.274,185.817,2649.761,182.684,2650.249,182.684C2650.737,182.684,2651.225,185.817,2655.217,187.384C2659.21,188.95,2666.707,188.95,2670.455,188.95L2674.204,188.95" stroke="white" class="sonLine " id="sonLine " stroke-dasharray="0" stroke-width="2" fill="none"></path><circle id="linePoint_12" class="linePoint" opacity="0" cx="2649.322240406146" cy="182.4450930136644" r="5" fill="red"></circle><text y="224.7506850909532" x="2656.303347280335" id="text_12_0" class="text" fill="grey" font-size="16" style="text-anchor: middle;"> Lemma</text><circle id="entCircle_13" class="entCircle" opacity="1" cx="2818.6861924686195" cy="180" r="31.88284518828452" fill="rgb(203, 230, 209)"></circle><path d="M2790.774,193.806L2793.565,193.806C2796.357,193.806,2801.939,193.806,2805.356,188.74C2808.772,183.674,2810.021,173.542,2811.271,173.542C2812.52,173.542,2813.77,183.674,2819.607,188.74C2825.445,193.806,2835.871,193.806,2841.084,193.806L2846.298,193.806" stroke="white" class="sonLine " id="sonLine " stroke-dasharray="0" stroke-width="2" fill="none"></path><circle id="linePoint_13" class="linePoint" opacity="0" cx="2809.9886159970556" cy="172.7703681675644" r="5" fill="red"></circle><text y="249.0283846949521" x="2818.6861924686195" id="text_13_0" class="text" fill="grey" font-size="16" style="text-anchor: middle;"> Proof</text><path d="M-50.205,0A50.205,50.205,0,0,1,-50.205,-0.209L-41.805,-0.174A41.805,41.805,0,0,0,-41.805,0Z" class="timeAxisFor f3 0" transform="translate(1051.7154811715482,180)" stroke="rgb(125, 66, 206)" stroke-width="0" stroke-dasharray="0" stroke-linejoin="round" fill="rgb(125, 66, 206)" opacity="0.2"></path><path d="M-50.205,-0.209A50.205,50.205,0,0,1,-50.177,-1.669L-41.782,-1.39A41.805,41.805,0,0,0,-41.805,-0.174Z" class="timeAxisFor f3 1" transform="translate(1051.7154811715482,180)" stroke="rgb(125, 66, 206)" stroke-width="0" stroke-dasharray="0" stroke-linejoin="round" fill="rgb(125, 66, 206)" opacity="0.2"></path><path d="M-56.768,-2.058A56.805,56.805,0,0,1,-56.605,-4.759L-38.071,-3.201A38.205,38.205,0,0,0,-38.18,-1.384Z" class="timeAxisFor f3 2" transform="translate(1051.7154811715482,180)" stroke="white" stroke-width="0" stroke-dasharray="0" stroke-linejoin="round" fill="rgb(248, 134, 124)" opacity="0.4"></path><path d="M-53.588,-4.83A53.805,53.805,0,0,1,-42.042,-33.577L-29.853,-23.842A38.205,38.205,0,0,0,-38.051,-3.429Z" class="timeAxisFor f3 3" transform="translate(1051.7154811715482,180)" stroke="white" stroke-width="0" stroke-dasharray="0" stroke-linejoin="round" fill="rgb(248, 134, 124)" opacity="0.4"></path><path d="M-42.708,-17.103A46.005,46.005,0,0,1,-42.689,-17.15A46.005,46.005,0,0,0,-42.708,-17.103Z" class="timeAxisself f3" transform="translate(1051.7154811715482,180)" stroke="rgb(203, 230, 209)" stroke-width="6" stroke-dasharray="0" stroke-linejoin="round" fill="rgb(248, 134, 124)" opacity="1"></path><path d="M-41.84,-33.829A53.805,53.805,0,0,1,-16.801,-51.115L-11.93,-36.295A38.205,38.205,0,0,0,-29.709,-24.021Z" class="timeAxisFor f3 4" transform="translate(1051.7154811715482,180)" stroke="white" stroke-width="0" stroke-dasharray="0" stroke-linejoin="round" fill="rgb(248, 134, 124)" opacity="0.4"></path><path d="M-16.494,-51.215A53.805,53.805,0,0,1,-12.358,-52.367L-8.775,-37.184A38.205,38.205,0,0,0,-11.712,-36.366Z" class="timeAxisFor f3 5" transform="translate(1051.7154811715482,180)" stroke="rgb(248, 134, 124)" stroke-width="0" stroke-dasharray="0" stroke-linejoin="round" fill="rgb(248, 134, 124)" opacity="1"></path><path d="M-12.043,-52.44A53.805,53.805,0,0,1,10.551,-52.76L7.492,-37.463A38.205,38.205,0,0,0,-8.552,-37.236Z" class="timeAxisFor f3 6" transform="translate(1051.7154811715482,180)" stroke="white" stroke-width="0" stroke-dasharray="0" stroke-linejoin="round" fill="rgb(248, 134, 124)" opacity="0.4"></path><path d="M10.867,-52.696A53.805,53.805,0,0,1,16.689,-51.151L11.85,-36.321A38.205,38.205,0,0,0,7.716,-37.418Z" class="timeAxisFor f3 7" transform="translate(1051.7154811715482,180)" stroke="rgb(248, 134, 124)" stroke-width="0" stroke-dasharray="0" stroke-linejoin="round" fill="rgb(248, 134, 124)" opacity="1"></path><path d="M16.996,-51.05A53.805,53.805,0,0,1,45.944,-28.003L32.623,-19.884A38.205,38.205,0,0,0,12.068,-36.249Z" class="timeAxisFor f3 8" transform="translate(1051.7154811715482,180)" stroke="white" stroke-width="0" stroke-dasharray="0" stroke-linejoin="round" fill="rgb(248, 134, 124)" opacity="0.4"></path><path d="M42.948,-26A50.205,50.205,0,0,1,43.479,-25.103L36.204,-20.903A41.805,41.805,0,0,0,35.762,-21.65Z" class="timeAxisFor f3 9" transform="translate(1051.7154811715482,180)" stroke="rgb(50, 198, 191)" stroke-width="0" stroke-dasharray="0" stroke-linejoin="round" fill="rgb(50, 198, 191)" opacity="0.2"></path><path d="M43.479,-25.103A50.205,50.205,0,0,1,44.865,-22.532L37.358,-18.762A41.805,41.805,0,0,0,36.204,-20.903Z" class="timeAxisFor f3 10" transform="translate(1051.7154811715482,180)" stroke="rgb(50, 198, 191)" stroke-width="0" stroke-dasharray="0" stroke-linejoin="round" fill="rgb(50, 198, 191)" opacity="0.2"></path><path d="M44.865,-22.532A50.205,50.205,0,0,1,47.786,-15.395L39.791,-12.819A41.805,41.805,0,0,0,37.358,-18.762Z" class="timeAxisFor f3 11" transform="translate(1051.7154811715482,180)" stroke="rgb(50, 198, 191)" stroke-width="0" stroke-dasharray="0" stroke-linejoin="round" fill="rgb(50, 198, 191)" opacity="0.2"></path><path d="M47.786,-15.395A50.205,50.205,0,0,1,48.036,-14.599L39.999,-12.156A41.805,41.805,0,0,0,39.791,-12.819Z" class="timeAxisFor f3 12" transform="translate(1051.7154811715482,180)" stroke="rgb(50, 198, 191)" stroke-width="0" stroke-dasharray="0" stroke-linejoin="round" fill="rgb(50, 198, 191)" opacity="0.2"></path><path d="M48.036,-14.599A50.205,50.205,0,0,1,50.205,0L41.805,0A41.805,41.805,0,0,0,39.999,-12.156Z" class="timeAxisFor f3 13" transform="translate(1051.7154811715482,180)" stroke="rgb(50, 198, 191)" stroke-width="0" stroke-dasharray="0" stroke-linejoin="round" fill="rgb(50, 198, 191)" opacity="0.2"></path><path d="M-42.339,0A42.339,42.339,0,0,1,-42.339,-0.176L-33.939,-0.141A33.939,33.939,0,0,0,-33.939,0Z" class="timeAxisFor f5 0" transform="translate(1363.0920502092051,180) scale(1)" stroke="rgb(125, 66, 206)" stroke-width="0" stroke-dasharray="0" stroke-linejoin="round" fill="rgb(125, 66, 206)" opacity="0.2"></path><path d="M-42.339,-0.176A42.339,42.339,0,0,1,-42.316,-1.407L-33.92,-1.128A33.939,33.939,0,0,0,-33.939,-0.141Z" class="timeAxisFor f5 1" transform="translate(1363.0920502092051,180) scale(1)" stroke="rgb(125, 66, 206)" stroke-width="0" stroke-dasharray="0" stroke-linejoin="round" fill="rgb(125, 66, 206)" opacity="0.2"></path><path d="M-48.907,-1.773A48.939,48.939,0,0,1,-48.767,-4.1L-30.232,-2.542A30.339,30.339,0,0,0,-30.319,-1.099Z" class="timeAxisFor f5 2" transform="translate(1363.0920502092051,180) scale(1)" stroke="white" stroke-width="0" stroke-dasharray="0" stroke-linejoin="round" fill="rgb(248, 134, 124)" opacity="0.4"></path><path d="M-45.753,-4.124A45.939,45.939,0,0,1,-35.896,-28.668L-23.706,-18.933A30.339,30.339,0,0,0,-30.216,-2.723Z" class="timeAxisFor f5 3" transform="translate(1363.0920502092051,180) scale(1)" stroke="rgb(248, 134, 124)" stroke-width="0" stroke-dasharray="0" stroke-linejoin="round" fill="rgb(248, 134, 124)" opacity="1"></path><path d="M-35.723,-28.883A45.939,45.939,0,0,1,-14.345,-43.642L-9.474,-28.822A30.339,30.339,0,0,0,-23.592,-19.075Z" class="timeAxisFor f5 4" transform="translate(1363.0920502092051,180) scale(1)" stroke="white" stroke-width="0" stroke-dasharray="0" stroke-linejoin="round" fill="rgb(248, 134, 124)" opacity="0.4"></path><path d="M-14.083,-43.727A45.939,45.939,0,0,1,-10.551,-44.711L-6.968,-29.528A30.339,30.339,0,0,0,-9.3,-28.878Z" class="timeAxisFor f5 5" transform="translate(1363.0920502092051,180) scale(1)" stroke="white" stroke-width="0" stroke-dasharray="0" stroke-linejoin="round" fill="rgb(248, 134, 124)" opacity="0.4"></path><path d="M-10.271,-36.73A38.139,38.139,0,0,1,-10.23,-36.741A38.139,38.139,0,0,0,-10.271,-36.73Z" class="timeAxisself f5" transform="translate(1363.0920502092051,180) scale(1)" stroke="rgb(203, 230, 209)" stroke-width="6" stroke-dasharray="0" stroke-linejoin="round" fill="rgb(248, 134, 124)" opacity="1"></path><path d="M-10.283,-44.773A45.939,45.939,0,0,1,9.008,-45.047L5.949,-29.75A30.339,30.339,0,0,0,-6.791,-29.569Z" class="timeAxisFor f5 6" transform="translate(1363.0920502092051,180) scale(1)" stroke="white" stroke-width="0" stroke-dasharray="0" stroke-linejoin="round" fill="rgb(248, 134, 124)" opacity="0.4"></path><path d="M9.278,-44.992A45.939,45.939,0,0,1,14.249,-43.673L9.41,-28.843A30.339,30.339,0,0,0,6.128,-29.714Z" class="timeAxisFor f5 7" transform="translate(1363.0920502092051,180) scale(1)" stroke="white" stroke-width="0" stroke-dasharray="0" stroke-linejoin="round" fill="rgb(248, 134, 124)" opacity="0.4"></path><path d="M14.511,-43.587A45.939,45.939,0,0,1,39.227,-23.909L25.906,-15.79A30.339,30.339,0,0,0,9.583,-28.786Z" class="timeAxisFor f5 8" transform="translate(1363.0920502092051,180) scale(1)" stroke="white" stroke-width="0" stroke-dasharray="0" stroke-linejoin="round" fill="rgb(248, 134, 124)" opacity="0.4"></path><path d="M36.219,-21.927A42.339,42.339,0,0,1,36.667,-21.169L29.392,-16.969A33.939,33.939,0,0,0,29.033,-17.576Z" class="timeAxisFor f5 9" transform="translate(1363.0920502092051,180) scale(1)" stroke="rgb(50, 198, 191)" stroke-width="0" stroke-dasharray="0" stroke-linejoin="round" fill="rgb(50, 198, 191)" opacity="0.2"></path><path d="M36.667,-21.169A42.339,42.339,0,0,1,37.835,-19.002L30.329,-15.232A33.939,33.939,0,0,0,29.392,-16.969Z" class="timeAxisFor f5 10" transform="translate(1363.0920502092051,180) scale(1)" stroke="rgb(50, 198, 191)" stroke-width="0" stroke-dasharray="0" stroke-linejoin="round" fill="rgb(50, 198, 191)" opacity="0.2"></path><path d="M37.835,-19.002A42.339,42.339,0,0,1,40.299,-12.983L32.304,-10.407A33.939,33.939,0,0,0,30.329,-15.232Z" class="timeAxisFor f5 11" transform="translate(1363.0920502092051,180) scale(1)" stroke="rgb(50, 198, 191)" stroke-width="0" stroke-dasharray="0" stroke-linejoin="round" fill="rgb(50, 198, 191)" opacity="0.2"></path><path d="M40.299,-12.983A42.339,42.339,0,0,1,40.509,-12.311L32.472,-9.869A33.939,33.939,0,0,0,32.304,-10.407Z" class="timeAxisFor f5 12" transform="translate(1363.0920502092051,180) scale(1)" stroke="rgb(50, 198, 191)" stroke-width="0" stroke-dasharray="0" stroke-linejoin="round" fill="rgb(50, 198, 191)" opacity="0.2"></path><path d="M40.509,-12.311A42.339,42.339,0,0,1,42.339,0L33.939,0A33.939,33.939,0,0,0,32.472,-9.869Z" class="timeAxisFor f5 13" transform="translate(1363.0920502092051,180) scale(1)" stroke="rgb(50, 198, 191)" stroke-width="0" stroke-dasharray="0" stroke-linejoin="round" fill="rgb(50, 198, 191)" opacity="0.2"></path><path d="M-42.841,0A42.841,42.841,0,0,1,-42.841,-0.178L-34.441,-0.143A34.441,34.441,0,0,0,-34.441,0Z" class="timeAxisFor f7 0" transform="translate(1672.6276150627616,180)" stroke="rgb(125, 66, 206)" stroke-width="0" stroke-dasharray="0" stroke-linejoin="round" fill="rgb(125, 66, 206)" opacity="0.2"></path><path d="M-42.841,-0.178A42.841,42.841,0,0,1,-42.817,-1.424L-34.422,-1.145A34.441,34.441,0,0,0,-34.441,-0.143Z" class="timeAxisFor f7 1" transform="translate(1672.6276150627616,180)" stroke="rgb(125, 66, 206)" stroke-width="0" stroke-dasharray="0" stroke-linejoin="round" fill="rgb(125, 66, 206)" opacity="0.2"></path><path d="M-49.409,-1.792A49.441,49.441,0,0,1,-49.267,-4.142L-30.733,-2.584A30.841,30.841,0,0,0,-30.821,-1.118Z" class="timeAxisFor f7 2" transform="translate(1672.6276150627616,180)" stroke="white" stroke-width="0" stroke-dasharray="0" stroke-linejoin="round" fill="rgb(248, 134, 124)" opacity="0.4"></path><path d="M-46.254,-4.169A46.441,46.441,0,0,1,-36.288,-28.982L-24.099,-19.246A30.841,30.841,0,0,0,-30.717,-2.768Z" class="timeAxisFor f7 3" transform="translate(1672.6276150627616,180)" stroke="rgb(248, 134, 124)" stroke-width="0" stroke-dasharray="0" stroke-linejoin="round" fill="rgb(248, 134, 124)" opacity="1"></path><path d="M-36.114,-29.199A46.441,46.441,0,0,1,-14.502,-44.119L-9.63,-29.299A30.841,30.841,0,0,0,-23.983,-19.391Z" class="timeAxisFor f7 4" transform="translate(1672.6276150627616,180)" stroke="white" stroke-width="0" stroke-dasharray="0" stroke-linejoin="round" fill="rgb(248, 134, 124)" opacity="0.4"></path><path d="M-14.237,-44.205A46.441,46.441,0,0,1,-10.666,-45.199L-7.083,-30.017A30.841,30.841,0,0,0,-9.454,-29.356Z" class="timeAxisFor f7 5" transform="translate(1672.6276150627616,180)" stroke="white" stroke-width="0" stroke-dasharray="0" stroke-linejoin="round" fill="rgb(248, 134, 124)" opacity="0.4"></path><path d="M-10.395,-45.263A46.441,46.441,0,0,1,9.107,-45.539L6.048,-30.242A30.841,30.841,0,0,0,-6.903,-30.058Z" class="timeAxisFor f7 6" transform="translate(1672.6276150627616,180)" stroke="white" stroke-width="0" stroke-dasharray="0" stroke-linejoin="round" fill="rgb(248, 134, 124)" opacity="0.4"></path><path d="M9.38,-45.484A46.441,46.441,0,0,1,14.405,-44.151L9.566,-29.32A30.841,30.841,0,0,0,6.229,-30.205Z" class="timeAxisFor f7 7" transform="translate(1672.6276150627616,180)" stroke="white" stroke-width="0" stroke-dasharray="0" stroke-linejoin="round" fill="rgb(248, 134, 124)" opacity="0.4"></path><path d="M9.873,-37.358A38.641,38.641,0,0,1,9.914,-37.348A38.641,38.641,0,0,0,9.873,-37.358Z" class="timeAxisself f7" transform="translate(1672.6276150627616,180)" stroke="rgb(203, 230, 209)" stroke-width="6" stroke-dasharray="0" stroke-linejoin="round" fill="rgb(248, 134, 124)" opacity="1"></path><path d="M14.669,-44.063A46.441,46.441,0,0,1,39.656,-24.17L26.335,-16.051A30.841,30.841,0,0,0,9.742,-29.262Z" class="timeAxisFor f7 8" transform="translate(1672.6276150627616,180)" stroke="white" stroke-width="0" stroke-dasharray="0" stroke-linejoin="round" fill="rgb(248, 134, 124)" opacity="0.4"></path><path d="M36.648,-22.187A42.841,42.841,0,0,1,37.101,-21.421L29.827,-17.221A34.441,34.441,0,0,0,29.463,-17.836Z" class="timeAxisFor f7 9" transform="translate(1672.6276150627616,180)" stroke="rgb(50, 198, 191)" stroke-width="0" stroke-dasharray="0" stroke-linejoin="round" fill="rgb(50, 198, 191)" opacity="0.2"></path><path d="M37.101,-21.421A42.841,42.841,0,0,1,38.284,-19.227L30.778,-15.457A34.441,34.441,0,0,0,29.827,-17.221Z" class="timeAxisFor f7 10" transform="translate(1672.6276150627616,180)" stroke="rgb(50, 198, 191)" stroke-width="0" stroke-dasharray="0" stroke-linejoin="round" fill="rgb(50, 198, 191)" opacity="0.2"></path><path d="M38.284,-19.227A42.841,42.841,0,0,1,40.777,-13.137L32.782,-10.561A34.441,34.441,0,0,0,30.778,-15.457Z" class="timeAxisFor f7 11" transform="translate(1672.6276150627616,180)" stroke="rgb(50, 198, 191)" stroke-width="0" stroke-dasharray="0" stroke-linejoin="round" fill="rgb(50, 198, 191)" opacity="0.2"></path><path d="M40.777,-13.137A42.841,42.841,0,0,1,40.99,-12.457L32.953,-10.015A34.441,34.441,0,0,0,32.782,-10.561Z" class="timeAxisFor f7 12" transform="translate(1672.6276150627616,180)" stroke="rgb(50, 198, 191)" stroke-width="0" stroke-dasharray="0" stroke-linejoin="round" fill="rgb(50, 198, 191)" opacity="0.2"></path><path d="M40.99,-12.457A42.841,42.841,0,0,1,42.841,0L34.441,0A34.441,34.441,0,0,0,32.953,-10.015Z" class="timeAxisFor f7 13" transform="translate(1672.6276150627616,180)" stroke="rgb(50, 198, 191)" stroke-width="0" stroke-dasharray="0" stroke-linejoin="round" fill="rgb(50, 198, 191)" opacity="0.2"></path></g></g>
</svg>