<?xml version="1.0" standalone="no"?>
<!DOCTYPE svg PUBLIC "-//W3C//DTD SVG 1.1//EN" "http://www.w3.org/Graphics/SVG/1.1/DTD/svg11.dtd">
<svg t="1679468177819" class="icon" viewBox="0 0 5024 5024" version="1.1" xmlns="http://www.w3.org/2000/svg" p-id="2610" xmlns:xlink="http://www.w3.org/1999/xlink" width="5000" height="5000">
<rect id="timeAxisEntB_0" class="timeAxisEntB" x="18" y="20" rx="6" ry="6" height="100" width="181.81277860326895" fill="rgb(125, 66, 206)" opacity="0.3" stroke="white" stroke-width="1.5px"></rect><rect id="timeAxisEnt_0" class="timeAxisEnt" x="20" y="40" rx="3" ry="3" height="80" width="19.922734026745914" fill="rgb(125, 66, 206)" opacity="0.4" stroke="rgb(95, 39, 179)" stroke-width="1.5px"></rect><text y="140" x="29.961367013372957" id="timeText_0_0" class="timeText" fill="grey" font-size="16" style="text-anchor: middle;" opacity="0"> Random,Variables</text><rect id="timeAxisEnt_1" class="timeAxisEnt" x="43.922734026745914" y="60" rx="3" ry="3" height="60" width="15.13818722139673" fill="rgb(125, 66, 206)" opacity="0.4" stroke="rgb(95, 39, 179)" stroke-width="1.5px"></rect><text y="140" x="51.49182763744428" id="timeText_1_0" class="timeText" fill="grey" font-size="16" style="text-anchor: middle;" opacity="0"> Mean,and,Variance</text><rect id="timeAxisEnt_2" class="timeAxisEnt" x="63.06092124814265" y="60" rx="3" ry="3" height="60" width="19.922734026745914" fill="rgb(125, 66, 206)" opacity="0.4" stroke="rgb(95, 39, 179)" stroke-width="1.5px"></rect><text y="140" x="73.0222882615156" id="timeText_2_0" class="timeText" fill="grey" font-size="16" style="text-anchor: middle;" opacity="0"> Continuous,Random,Variables</text><rect id="timeAxisEnt_3" class="timeAxisEnt" x="86.98365527488856" y="80" rx="3" ry="3" height="40" width="48.630014858841015" fill="rgb(125, 66, 206)" opacity="0.4" stroke="rgb(95, 39, 179)" stroke-width="1.5px"></rect><text y="140" x="111.29866270430907" id="timeText_3_0" class="timeText" fill="grey" font-size="16" style="text-anchor: middle;" opacity="0"> Probability,Density,Function</text><rect id="timeAxisEnt_4" class="timeAxisEnt" x="139.61367013372958" y="80" rx="3" ry="3" height="40" width="58.199108469539375" fill="rgb(125, 66, 206)" opacity="0.4" stroke="rgb(95, 39, 179)" stroke-width="1.5px"></rect><text y="140" x="168.71322436849928" id="timeText_4_0" class="timeText" fill="grey" font-size="16" style="text-anchor: middle;" opacity="0"> Cumulative,Density,Function</text><rect id="timeAxisEntB_5" class="timeAxisEntB" x="199.81277860326895" y="20" rx="6" ry="6" height="100" width="181.81277860326895" fill="rgb(248, 134, 124)" opacity="0.3" stroke="white" stroke-width="1.5px"></rect><rect id="timeAxisEnt_5" class="timeAxisEnt" x="201.81277860326895" y="40" rx="3" ry="3" height="80" width="10.353640416047547" fill="rgb(248, 134, 124)" opacity="0.4" stroke="rgb(221, 83, 72)" stroke-width="1.5px"></rect><text y="140" x="206.98959881129272" id="timeText_5_0" class="timeText" fill="grey" font-size="16" style="text-anchor: middle;" opacity="0"> Random,Variables</text><rect id="timeAxisEnt_6" class="timeAxisEnt" x="216.1664190193165" y="60" rx="3" ry="3" height="60" width="0.7845468053491826" fill="rgb(248, 134, 124)" opacity="0.4" stroke="rgb(221, 83, 72)" stroke-width="1.5px"></rect><text y="140" x="216.55869242199108" id="timeText_6_0" class="timeText" fill="grey" font-size="16" style="text-anchor: middle;" opacity="0"> Expectation</text><rect id="timeAxisEnt_7" class="timeAxisEnt" x="220.95096582466567" y="80" rx="3" ry="3" height="40" width="94.08320950965825" fill="rgb(248, 134, 124)" opacity="0.4" stroke="rgb(221, 83, 72)" stroke-width="1.5px"></rect><text y="140" x="267.9925705794948" id="timeText_7_0" class="timeText" fill="grey" font-size="16" style="text-anchor: middle;" opacity="0"> Mean</text><rect id="timeAxisEnt_8" class="timeAxisEnt" x="319.0341753343239" y="80" rx="3" ry="3" height="40" width="60.59138187221397" fill="rgb(248, 134, 124)" opacity="0.4" stroke="rgb(221, 83, 72)" stroke-width="1.5px"></rect><text y="140" x="349.3298662704309" id="timeText_8_0" class="timeText" fill="grey" font-size="16" style="text-anchor: middle;" opacity="0"> Variance</text><rect id="timeAxisEntB_9" class="timeAxisEntB" x="381.62555720653785" y="20" rx="6" ry="6" height="100" width="160.28231797919761" fill="rgb(50, 198, 191)" opacity="0.3" stroke="white" stroke-width="1.5px"></rect><rect id="timeAxisEnt_9" class="timeAxisEnt" x="383.62555720653785" y="40" rx="3" ry="3" height="80" width="98.86775631500743" fill="rgb(50, 198, 191)" opacity="0.4" stroke="rgb(0, 158, 148)" stroke-width="1.5px"></rect><text y="140" x="433.0594353640416" id="timeText_9_0" class="timeText" fill="grey" font-size="16" style="text-anchor: middle;" opacity="0"> expectation,of,linear,functions</text><rect id="timeAxisEnt_10" class="timeAxisEnt" x="486.49331352154525" y="60" rx="3" ry="3" height="60" width="53.41456166419019" fill="rgb(50, 198, 191)" opacity="0.4" stroke="rgb(0, 158, 148)" stroke-width="1.5px"></rect><text y="140" x="513.2005943536403" id="timeText_10_0" class="timeText" fill="grey" font-size="16" style="text-anchor: middle;" opacity="0"> Test</text><rect id="timeAxisEntB_11" class="timeAxisEntB" x="541.9078751857354" y="20" rx="6" ry="6" height="100" width="196.1664190193165" fill="rgb(135, 126, 253)" opacity="0.3" stroke="white" stroke-width="1.5px"></rect><rect id="timeAxisEnt_11" class="timeAxisEnt" x="543.9078751857354" y="40" rx="3" ry="3" height="80" width="17.53046062407132" fill="rgb(135, 126, 253)" opacity="0.4" stroke="rgb(93, 88, 202)" stroke-width="1.5px"></rect><text y="140" x="552.6731054977711" id="timeText_11_0" class="timeText" fill="grey" font-size="16" style="text-anchor: middle;" opacity="0"> Two,random,variables</text><rect id="timeAxisEnt_12" class="timeAxisEnt" x="565.4383358098067" y="60" rx="3" ry="3" height="60" width="51.0222882615156" fill="rgb(135, 126, 253)" opacity="0.4" stroke="rgb(93, 88, 202)" stroke-width="1.5px"></rect><text y="140" x="590.9494799405645" id="timeText_12_0" class="timeText" fill="grey" font-size="16" style="text-anchor: middle;" opacity="0"> Let,x,and,y,be,random,variables</text><rect id="timeAxisEnt_13" class="timeAxisEnt" x="620.4606240713224" y="80" rx="3" ry="3" height="40" width="48.630014858841015" fill="rgb(135, 126, 253)" opacity="0.4" stroke="rgb(93, 88, 202)" stroke-width="1.5px"></rect><text y="140" x="644.7756315007429" id="timeText_13_0" class="timeText" fill="grey" font-size="16" style="text-anchor: middle;" opacity="0"> marginal,density</text><rect id="timeAxisEnt_14" class="timeAxisEnt" x="673.0906389301634" y="80" rx="3" ry="3" height="40" width="62.98365527488856" fill="rgb(135, 126, 253)" opacity="0.4" stroke="rgb(93, 88, 202)" stroke-width="1.5px"></rect><text y="140" x="704.5824665676078" id="timeText_14_0" class="timeText" fill="grey" font-size="16" style="text-anchor: middle;" opacity="0"> covariance</text><rect id="timeAxisEntB_15" class="timeAxisEntB" x="738.074294205052" y="20" rx="6" ry="6" height="100" width="162.6745913818722" fill="rgb(198, 121, 123)" opacity="0.3" stroke="white" stroke-width="1.5px"></rect><rect id="timeAxisEnt_15" class="timeAxisEnt" x="740.074294205052" y="40" rx="3" ry="3" height="80" width="-1.6077265973254087" fill="rgb(198, 121, 123)" opacity="0.4" stroke="rgb(180, 72, 79)" stroke-width="1.5px"></rect><text y="140" x="739.2704309063893" id="timeText_15_0" class="timeText" fill="grey" font-size="16" style="text-anchor: middle;" opacity="0"> Sum,of,two,random,variables</text><rect id="timeAxisEnt_16" class="timeAxisEnt" x="742.4665676077266" y="60" rx="3" ry="3" height="60" width="10.353640416047547" fill="rgb(198, 121, 123)" opacity="0.4" stroke="rgb(180, 72, 79)" stroke-width="1.5px"></rect><text y="140" x="747.6433878157503" id="timeText_16_0" class="timeText" fill="grey" font-size="16" style="text-anchor: middle;" opacity="0"> z=x+y</text><rect id="timeAxisEnt_17" class="timeAxisEnt" x="756.8202080237742" y="80" rx="3" ry="3" height="40" width="65.37592867756315" fill="rgb(198, 121, 123)" opacity="0.4" stroke="rgb(180, 72, 79)" stroke-width="1.5px"></rect><text y="140" x="789.5081723625558" id="timeText_17_0" class="timeText" fill="grey" font-size="16" style="text-anchor: middle;" opacity="0"> Mean</text><rect id="timeAxisEnt_18" class="timeAxisEnt" x="826.1961367013373" y="80" rx="3" ry="3" height="40" width="72.55274888558692" fill="rgb(198, 121, 123)" opacity="0.4" stroke="rgb(180, 72, 79)" stroke-width="1.5px"></rect><text y="140" x="862.4725111441307" id="timeText_18_0" class="timeText" fill="grey" font-size="16" style="text-anchor: middle;" opacity="0"> Variance</text><rect id="timeAxisEntB_19" class="timeAxisEntB" x="900.7488855869242" y="20" rx="6" ry="6" height="100" width="86.12184249628528" fill="rgb(252, 177, 49)" opacity="0.3" stroke="white" stroke-width="1.5px"></rect><rect id="timeAxisEnt_19" class="timeAxisEnt" x="902.7488855869242" y="40" rx="3" ry="3" height="80" width="82.12184249628528" fill="rgb(252, 177, 49)" opacity="0.4" stroke="rgb(202, 134, 32)" stroke-width="1.5px"></rect><text y="140" x="943.8098068350669" id="timeText_19_0" class="timeText" fill="grey" font-size="16" style="text-anchor: middle;" opacity="0"> Test</text><rect id="timeAxisEntB_20" class="timeAxisEntB" x="986.8707280832094" y="20" rx="6" ry="6" height="100" width="344.48736998514113" fill="rgb(112, 202, 229)" opacity="0.3" stroke="white" stroke-width="1.5px"></rect><rect id="timeAxisEnt_20" class="timeAxisEnt" x="988.8707280832094" y="40" rx="3" ry="3" height="80" width="10.353640416047547" fill="rgb(112, 202, 229)" opacity="0.4" stroke="rgb(46, 174, 202)" stroke-width="1.5px"></rect><text y="140" x="994.0475482912332" id="timeText_20_0" class="timeText" fill="grey" font-size="16" style="text-anchor: middle;" opacity="0"> n,Random,Variables</text><rect id="timeAxisEnt_21" class="timeAxisEnt" x="1003.224368499257" y="60" rx="3" ry="3" height="60" width="24.707280832095094" fill="rgb(112, 202, 229)" opacity="0.4" stroke="rgb(46, 174, 202)" stroke-width="1.5px"></rect><text y="140" x="1015.5780089153046" id="timeText_21_0" class="timeText" fill="grey" font-size="16" style="text-anchor: middle;" opacity="0"> Joint,density</text><rect id="timeAxisEnt_22" class="timeAxisEnt" x="1031.9316493313522" y="60" rx="3" ry="3" height="60" width="12.74591381872214" fill="rgb(112, 202, 229)" opacity="0.4" stroke="rgb(46, 174, 202)" stroke-width="1.5px"></rect><text y="140" x="1038.3046062407134" id="timeText_22_0" class="timeText" fill="grey" font-size="16" style="text-anchor: middle;" opacity="0"> marginal,density</text><rect id="timeAxisEnt_23" class="timeAxisEnt" x="1048.6775631500743" y="60" rx="3" ry="3" height="60" width="-1.6077265973254087" fill="rgb(112, 202, 229)" opacity="0.4" stroke="rgb(46, 174, 202)" stroke-width="1.5px"></rect><text y="140" x="1047.8736998514116" id="timeText_23_0" class="timeText" fill="grey" font-size="16" style="text-anchor: middle;" opacity="0"> expectation,of,n,random,cariables</text><rect id="timeAxisEnt_24" class="timeAxisEnt" x="1051.069836552749" y="80" rx="3" ry="3" height="40" width="17.53046062407132" fill="rgb(112, 202, 229)" opacity="0.4" stroke="rgb(46, 174, 202)" stroke-width="1.5px"></rect><text y="140" x="1059.8350668647845" id="timeText_24_0" class="timeText" fill="grey" font-size="16" style="text-anchor: middle;" opacity="0"> Mean</text><rect id="timeAxisEnt_25" class="timeAxisEnt" x="1072.6002971768203" y="80" rx="3" ry="3" height="40" width="12.74591381872214" fill="rgb(112, 202, 229)" opacity="0.4" stroke="rgb(46, 174, 202)" stroke-width="1.5px"></rect><text y="140" x="1078.9732540861814" id="timeText_25_0" class="timeText" fill="grey" font-size="16" style="text-anchor: middle;" opacity="0"> n,Variance</text><rect id="timeAxisEnt_26" class="timeAxisEnt" x="1089.3462109955424" y="100" rx="3" ry="3" height="20" width="91.69093610698366" fill="rgb(112, 202, 229)" opacity="0.4" stroke="rgb(46, 174, 202)" stroke-width="1.5px"></rect><text y="140" x="1135.1916790490343" id="timeText_26_0" class="timeText" fill="grey" font-size="16" style="text-anchor: middle;" opacity="0"> covariance</text><rect id="timeAxisEnt_27" class="timeAxisEnt" x="1185.037147102526" y="60" rx="3" ry="3" height="60" width="10.353640416047547" fill="rgb(112, 202, 229)" opacity="0.4" stroke="rgb(46, 174, 202)" stroke-width="1.5px"></rect><text y="140" x="1190.2139673105498" id="timeText_27_0" class="timeText" fill="grey" font-size="16" style="text-anchor: middle;" opacity="0"> linear,function,of,n,random,variables</text><rect id="timeAxisEnt_28" class="timeAxisEnt" x="1199.3907875185735" y="80" rx="3" ry="3" height="40" width="70.16047548291233" fill="rgb(112, 202, 229)" opacity="0.4" stroke="rgb(46, 174, 202)" stroke-width="1.5px"></rect><text y="140" x="1234.4710252600296" id="timeText_28_0" class="timeText" fill="grey" font-size="16" style="text-anchor: middle;" opacity="0"> Mean</text><rect id="timeAxisEnt_29" class="timeAxisEnt" x="1273.5512630014857" y="80" rx="3" ry="3" height="40" width="55.806835066864785" fill="rgb(112, 202, 229)" opacity="0.4" stroke="rgb(46, 174, 202)" stroke-width="1.5px"></rect><text y="140" x="1301.4546805349182" id="timeText_29_0" class="timeText" fill="grey" font-size="16" style="text-anchor: middle;" opacity="0"> Variance</text><rect id="timeAxisEntB_30" class="timeAxisEntB" x="1331.3580980683505" y="20" rx="6" ry="6" height="100" width="131.57503714710253" fill="rgb(125, 66, 206)" opacity="0.3" stroke="white" stroke-width="1.5px"></rect><rect id="timeAxisEnt_30" class="timeAxisEnt" x="1333.3580980683505" y="40" rx="3" ry="3" height="80" width="127.57503714710253" fill="rgb(125, 66, 206)" opacity="0.4" stroke="rgb(95, 39, 179)" stroke-width="1.5px"></rect><text y="140" x="1397.1456166419018" id="timeText_30_0" class="timeText" fill="grey" font-size="16" style="text-anchor: middle;" opacity="0"> Test</text><rect id="timeAxisEntB_31" class="timeAxisEntB" x="1462.9331352154531" y="20" rx="6" ry="6" height="100" width="119.61367013372957" fill="rgb(248, 134, 124)" opacity="0.3" stroke="white" stroke-width="1.5px"></rect><rect id="timeAxisEnt_31" class="timeAxisEnt" x="1464.9331352154531" y="40" rx="3" ry="3" height="80" width="31.88410104011887" fill="rgb(248, 134, 124)" opacity="0.4" stroke="rgb(221, 83, 72)" stroke-width="1.5px"></rect><text y="140" x="1480.8751857355126" id="timeText_31_0" class="timeText" fill="grey" font-size="16" style="text-anchor: middle;" opacity="0"> linear,transformations,of,the,n,random,variables</text><rect id="timeAxisEnt_32" class="timeAxisEnt" x="1500.817236255572" y="60" rx="3" ry="3" height="60" width="15.13818722139673" fill="rgb(248, 134, 124)" opacity="0.4" stroke="rgb(221, 83, 72)" stroke-width="1.5px"></rect><text y="140" x="1508.3863298662704" id="timeText_32_0" class="timeText" fill="grey" font-size="16" style="text-anchor: middle;" opacity="0"> Mean,Vector</text><rect id="timeAxisEnt_33" class="timeAxisEnt" x="1519.9554234769687" y="60" rx="3" ry="3" height="60" width="60.59138187221397" fill="rgb(248, 134, 124)" opacity="0.4" stroke="rgb(221, 83, 72)" stroke-width="1.5px"></rect><text y="140" x="1550.2511144130756" id="timeText_33_0" class="timeText" fill="grey" font-size="16" style="text-anchor: middle;" opacity="0"> Covariance,Matrix</text><rect id="timeAxisEntB_34" class="timeAxisEntB" x="1582.5468053491827" y="20" rx="6" ry="6" height="100" width="45.45319465081724" fill="rgb(50, 198, 191)" opacity="0.3" stroke="white" stroke-width="1.5px"></rect><rect id="timeAxisEnt_34" class="timeAxisEnt" x="1584.5468053491827" y="40" rx="3" ry="3" height="80" width="41.45319465081724" fill="rgb(50, 198, 191)" opacity="0.4" stroke="rgb(0, 158, 148)" stroke-width="1.5px"></rect><text y="140" x="1605.2734026745914" id="timeText_34_0" class="timeText" fill="grey" font-size="16" style="text-anchor: middle;" opacity="0"> invite</text><defs><filter id="coolShadow" x="-100%" y="-100%" width="300%" height="300%"><feMorphology in="SourceGraphic" result="upperLayer" operator="dilate" radius="0.2 0.2"></feMorphology><feMorphology in="SourceAlpha" result="enlargedAlpha" operator="dilate" radius="0.2 0.2"></feMorphology><feGaussianBlur in="enlargedAlpha" result="bluredAlpha" stdDeviation="3"></feGaussianBlur><feOffset in="bluredAlpha" result="lowerLayer" dy="1"></feOffset><feMerge><feMergeNode in="lowerLayer"></feMergeNode><feMergeNode in="upperLayer"></feMergeNode></feMerge></filter></defs><path id="1" class="river" d="M15,159.268L22.952,159.37C30.905,159.473,46.81,159.678,62.714,159.781C78.619,159.884,94.524,159.884,110.429,159.884C126.333,159.884,142.238,159.884,158.143,159.884C174.048,159.884,189.952,159.884,205.857,159.884C221.762,159.884,237.667,159.884,253.571,159.884C269.476,159.884,285.381,159.884,301.286,159.884C317.19,159.884,333.095,159.884,349,159.884C364.905,159.884,380.81,159.884,396.714,160.149C412.619,160.414,428.524,160.944,444.429,162.16C460.333,163.375,476.238,165.275,492.143,165.01C508.048,164.745,523.952,162.314,539.857,161.099C555.762,159.884,571.667,159.884,587.571,159.884C603.476,159.884,619.381,159.884,635.286,159.884C651.19,159.884,667.095,159.884,683,159.895C698.905,159.905,714.81,159.927,730.714,159.927C746.619,159.927,762.524,159.905,778.429,159.895C794.333,159.884,810.238,159.884,826.143,159.884C842.048,159.884,857.952,159.884,873.857,160.445C889.762,161.006,905.667,162.127,921.571,162.101C937.476,162.075,953.381,160.902,969.286,160.341C985.19,159.78,1001.095,159.832,1017,159.858C1032.905,159.884,1048.81,159.884,1064.714,159.897C1080.619,159.91,1096.524,159.935,1112.429,159.935C1128.333,159.935,1144.238,159.91,1160.143,159.897C1176.048,159.884,1191.952,159.884,1207.857,159.884C1223.762,159.884,1239.667,159.884,1255.571,159.81C1271.476,159.735,1287.381,159.587,1303.286,159.587C1319.19,159.587,1335.095,159.735,1351,159.81C1366.905,159.884,1382.81,159.884,1398.714,161.13C1414.619,162.376,1430.524,164.869,1446.429,164.869C1462.333,164.869,1478.238,162.376,1494.143,161.13C1510.048,159.884,1525.952,159.884,1541.857,159.884C1557.762,159.884,1573.667,159.884,1589.571,159.884C1605.476,159.884,1621.381,159.884,1629.333,159.884L1637.286,159.884L1637.286,177.384L1629.333,177.384C1621.381,177.384,1605.476,177.384,1589.571,177.384C1573.667,177.384,1557.762,177.384,1541.857,177.384C1525.952,177.384,1510.048,177.384,1494.143,176.138C1478.238,174.891,1462.333,172.399,1446.429,172.399C1430.524,172.399,1414.619,174.891,1398.714,176.138C1382.81,177.384,1366.905,177.384,1351,177.458C1335.095,177.532,1319.19,177.68,1303.286,177.68C1287.381,177.68,1271.476,177.532,1255.571,177.458C1239.667,177.384,1223.762,177.384,1207.857,177.384C1191.952,177.384,1176.048,177.384,1160.143,177.371C1144.238,177.358,1128.333,177.332,1112.429,177.332C1096.524,177.332,1080.619,177.358,1064.714,177.371C1048.81,177.384,1032.905,177.384,1017,177.41C1001.095,177.436,985.19,177.488,969.286,176.927C953.381,176.366,937.476,175.192,921.571,175.166C905.667,175.14,889.762,176.262,873.857,176.823C857.952,177.384,842.048,177.384,826.143,177.384C810.238,177.384,794.333,177.384,778.429,177.373C762.524,177.362,746.619,177.341,730.714,177.341C714.81,177.341,698.905,177.362,683,177.373C667.095,177.384,651.19,177.384,635.286,177.384C619.381,177.384,603.476,177.384,587.571,177.384C571.667,177.384,555.762,177.384,539.857,176.169C523.952,174.953,508.048,172.523,492.143,172.258C476.238,171.992,460.333,173.893,444.429,175.108C428.524,176.323,412.619,176.853,396.714,177.119C380.81,177.384,364.905,177.384,349,177.384C333.095,177.384,317.19,177.384,301.286,177.384C285.381,177.384,269.476,177.384,253.571,177.384C237.667,177.384,221.762,177.384,205.857,177.384C189.952,177.384,174.048,177.384,158.143,177.384C142.238,177.384,126.333,177.384,110.429,177.384C94.524,177.384,78.619,177.384,62.714,177.487C46.81,177.589,30.905,177.795,22.952,177.897L15,178Z" fill="#ff9c9c"></path><path id="2" class="river" d="M15,143L22.952,142.897C30.905,142.795,46.81,142.589,62.714,142.487C78.619,142.384,94.524,142.384,110.429,142.384C126.333,142.384,142.238,142.384,158.143,142.384C174.048,142.384,189.952,142.384,205.857,142.384C221.762,142.384,237.667,142.384,253.571,142.384C269.476,142.384,285.381,142.384,301.286,142.384C317.19,142.384,333.095,142.384,349,142.384C364.905,142.384,380.81,142.384,396.714,142.119C412.619,141.853,428.524,141.323,444.429,140.108C460.333,138.893,476.238,136.992,492.143,137.258C508.048,137.523,523.952,139.953,539.857,141.169C555.762,142.384,571.667,142.384,587.571,142.384C603.476,142.384,619.381,142.384,635.286,142.384C651.19,142.384,667.095,142.384,683,142.373C698.905,142.362,714.81,142.341,730.714,142.341C746.619,142.341,762.524,142.362,778.429,142.373C794.333,142.384,810.238,142.384,826.143,142.384C842.048,142.384,857.952,142.384,873.857,141.823C889.762,141.262,905.667,140.14,921.571,140.166C937.476,140.192,953.381,141.366,969.286,141.927C985.19,142.488,1001.095,142.436,1017,142.41C1032.905,142.384,1048.81,142.384,1064.714,142.371C1080.619,142.358,1096.524,142.332,1112.429,142.332C1128.333,142.332,1144.238,142.358,1160.143,142.371C1176.048,142.384,1191.952,142.384,1207.857,142.384C1223.762,142.384,1239.667,142.384,1255.571,142.458C1271.476,142.532,1287.381,142.68,1303.286,142.68C1319.19,142.68,1335.095,142.532,1351,142.458C1366.905,142.384,1382.81,142.384,1398.714,141.138C1414.619,139.891,1430.524,137.399,1446.429,137.399C1462.333,137.399,1478.238,139.891,1494.143,141.138C1510.048,142.384,1525.952,142.384,1541.857,142.384C1557.762,142.384,1573.667,142.384,1589.571,142.384C1605.476,142.384,1621.381,142.384,1629.333,142.384L1637.286,142.384L1637.286,159.884L1629.333,159.884C1621.381,159.884,1605.476,159.884,1589.571,159.884C1573.667,159.884,1557.762,159.884,1541.857,159.884C1525.952,159.884,1510.048,159.884,1494.143,161.13C1478.238,162.376,1462.333,164.869,1446.429,164.869C1430.524,164.869,1414.619,162.376,1398.714,161.13C1382.81,159.884,1366.905,159.884,1351,159.81C1335.095,159.735,1319.19,159.587,1303.286,159.587C1287.381,159.587,1271.476,159.735,1255.571,159.81C1239.667,159.884,1223.762,159.884,1207.857,159.884C1191.952,159.884,1176.048,159.884,1160.143,159.897C1144.238,159.91,1128.333,159.935,1112.429,159.935C1096.524,159.935,1080.619,159.91,1064.714,159.897C1048.81,159.884,1032.905,159.884,1017,159.858C1001.095,159.832,985.19,159.78,969.286,160.341C953.381,160.902,937.476,162.075,921.571,162.101C905.667,162.127,889.762,161.006,873.857,160.445C857.952,159.884,842.048,159.884,826.143,159.884C810.238,159.884,794.333,159.884,778.429,159.895C762.524,159.905,746.619,159.927,730.714,159.927C714.81,159.927,698.905,159.905,683,159.895C667.095,159.884,651.19,159.884,635.286,159.884C619.381,159.884,603.476,159.884,587.571,159.884C571.667,159.884,555.762,159.884,539.857,161.099C523.952,162.314,508.048,164.745,492.143,165.01C476.238,165.275,460.333,163.375,444.429,162.16C428.524,160.944,412.619,160.414,396.714,160.149C380.81,159.884,364.905,159.884,349,159.884C333.095,159.884,317.19,159.884,301.286,159.884C285.381,159.884,269.476,159.884,253.571,159.884C237.667,159.884,221.762,159.884,205.857,159.884C189.952,159.884,174.048,159.884,158.143,159.884C142.238,159.884,126.333,159.884,110.429,159.884C94.524,159.884,78.619,159.884,62.714,159.781C46.81,159.678,30.905,159.473,22.952,159.37L15,159.268Z" fill="#f4f4d0"></path><path id="3" class="river" d="M15,159.268L22.952,159.37C30.905,159.473,46.81,159.678,62.714,159.781C78.619,159.884,94.524,159.884,110.429,159.884C126.333,159.884,142.238,159.884,158.143,159.884C174.048,159.884,189.952,159.884,205.857,159.884C221.762,159.884,237.667,159.884,253.571,159.884C269.476,159.884,285.381,159.884,301.286,159.884C317.19,159.884,333.095,159.884,349,159.884C364.905,159.884,380.81,159.884,396.714,160.149C412.619,160.414,428.524,160.944,444.429,162.16C460.333,163.375,476.238,165.275,492.143,165.01C508.048,164.745,523.952,162.314,539.857,161.099C555.762,159.884,571.667,159.884,587.571,159.884C603.476,159.884,619.381,159.884,635.286,159.884C651.19,159.884,667.095,159.884,683,159.895C698.905,159.905,714.81,159.927,730.714,159.927C746.619,159.927,762.524,159.905,778.429,159.895C794.333,159.884,810.238,159.884,826.143,159.884C842.048,159.884,857.952,159.884,873.857,160.445C889.762,161.006,905.667,162.127,921.571,162.101C937.476,162.075,953.381,160.902,969.286,160.341C985.19,159.78,1001.095,159.832,1017,159.858C1032.905,159.884,1048.81,159.884,1064.714,159.897C1080.619,159.91,1096.524,159.935,1112.429,159.935C1128.333,159.935,1144.238,159.91,1160.143,159.897C1176.048,159.884,1191.952,159.884,1207.857,159.884C1223.762,159.884,1239.667,159.884,1255.571,159.81C1271.476,159.735,1287.381,159.587,1303.286,159.587C1319.19,159.587,1335.095,159.735,1351,159.81C1366.905,159.884,1382.81,159.884,1398.714,161.13C1414.619,162.376,1430.524,164.869,1446.429,164.869C1462.333,164.869,1478.238,162.376,1494.143,161.13C1510.048,159.884,1525.952,159.884,1541.857,159.884C1557.762,159.884,1573.667,159.884,1589.571,159.884C1605.476,159.884,1621.381,159.884,1629.333,159.884L1637.286,159.884L1637.286,159.884L1629.333,159.884C1621.381,159.884,1605.476,159.884,1589.571,159.884C1573.667,159.884,1557.762,159.884,1541.857,159.884C1525.952,159.884,1510.048,159.884,1494.143,161.13C1478.238,162.376,1462.333,164.869,1446.429,164.869C1430.524,164.869,1414.619,162.376,1398.714,161.13C1382.81,159.884,1366.905,159.884,1351,159.81C1335.095,159.735,1319.19,159.587,1303.286,159.587C1287.381,159.587,1271.476,159.735,1255.571,159.81C1239.667,159.884,1223.762,159.884,1207.857,159.884C1191.952,159.884,1176.048,159.884,1160.143,159.897C1144.238,159.91,1128.333,159.935,1112.429,159.935C1096.524,159.935,1080.619,159.91,1064.714,159.897C1048.81,159.884,1032.905,159.884,1017,159.858C1001.095,159.832,985.19,159.78,969.286,160.341C953.381,160.902,937.476,162.075,921.571,162.101C905.667,162.127,889.762,161.006,873.857,160.445C857.952,159.884,842.048,159.884,826.143,159.884C810.238,159.884,794.333,159.884,778.429,159.895C762.524,159.905,746.619,159.927,730.714,159.927C714.81,159.927,698.905,159.905,683,159.895C667.095,159.884,651.19,159.884,635.286,159.884C619.381,159.884,603.476,159.884,587.571,159.884C571.667,159.884,555.762,159.884,539.857,161.099C523.952,162.314,508.048,164.745,492.143,165.01C476.238,165.275,460.333,163.375,444.429,162.16C428.524,160.944,412.619,160.414,396.714,160.149C380.81,159.884,364.905,159.884,349,159.884C333.095,159.884,317.19,159.884,301.286,159.884C285.381,159.884,269.476,159.884,253.571,159.884C237.667,159.884,221.762,159.884,205.857,159.884C189.952,159.884,174.048,159.884,158.143,159.884C142.238,159.884,126.333,159.884,110.429,159.884C94.524,159.884,78.619,159.884,62.714,159.781C46.81,159.678,30.905,159.473,22.952,159.37L15,159.268Z" fill="#6f8be0"></path><polygon points="465.018501489875,-23,489.2672127958393,-23,477.14285714285717,-44" fill="rgb(250, 199, 88)" stroke-linejoin="round" opacity="1" stroke="rgb(250, 199, 88)" stroke-width="15"></polygon><text y="-23" x="477.14285714285717" id="18_4" class="text" fill="0" font-size="middle" style="text-anchor: middle;"> w h i t e</text><polygon points="894.4470729184465,-23,918.6957842244107,-23,906.5714285714286,-44" fill="rgb(250, 199, 88)" stroke-linejoin="round" opacity="1" stroke="rgb(250, 199, 88)" stroke-width="15"></polygon><text y="-23" x="906.5714285714286" id="18_4" class="text" fill="0" font-size="middle" style="text-anchor: middle;"> w h i t e</text><polygon points="1419.3042157755895,-23,1443.5529270815537,-23,1431.4285714285716,-44" fill="rgb(250, 199, 88)" stroke-linejoin="round" opacity="1" stroke="rgb(250, 199, 88)" stroke-width="15"></polygon><text y="-23" x="1431.4285714285716" id="18_4" class="text" fill="0" font-size="middle" style="text-anchor: middle;"> w h i t e</text>
</svg>